<?xml version="1.0" encoding="UTF-8" standalone="no"?>
<!-- Created with Inkscape (http://www.inkscape.org/) -->

<svg
   width="210mm"
   height="297mm"
   viewBox="0 0 210 297"
   version="1.1"
   id="svg5"
   inkscape:version="1.1.2 (0a00cf5339, 2022-02-04)"
   sodipodi:docname="ministerio_musica.svg"
   xmlns:inkscape="http://www.inkscape.org/namespaces/inkscape"
   xmlns:sodipodi="http://sodipodi.sourceforge.net/DTD/sodipodi-0.dtd"
   xmlns="http://www.w3.org/2000/svg"
   xmlns:svg="http://www.w3.org/2000/svg">
  <sodipodi:namedview
     id="namedview7"
     pagecolor="#ffffff"
     bordercolor="#000000"
     borderopacity="0.25"
     inkscape:pageshadow="2"
     inkscape:pageopacity="0.0"
     inkscape:pagecheckerboard="0"
     inkscape:document-units="mm"
     showgrid="false"
     inkscape:zoom="0.75366162"
     inkscape:cx="400.71033"
     inkscape:cy="559.93298"
     inkscape:window-width="1920"
     inkscape:window-height="1043"
     inkscape:window-x="0"
     inkscape:window-y="0"
     inkscape:window-maximized="1"
     inkscape:current-layer="layer1" />
  <defs
     id="defs2" />
  <g
     inkscape:label="Layer 1"
     inkscape:groupmode="layer"
     id="layer1">
    <path
       style="fill:#000000;stroke-width:0.264583"
       id="path101027"
       d="" />
    <path
       style="fill:#000000;stroke-width:0.264583"
       id="path101007"
       d="" />
    <path
       style="fill:#000000;stroke-width:0.264583"
       id="path100687"
       d="" />
    <path
       style="fill:#000000;stroke-width:0.264583"
       id="path100667"
       d="" />
    <path
       style="fill:#000000;stroke-width:0.264583"
       id="path100647"
       d="" />
    <path
       style="fill:#000000;stroke-width:0.264583"
       id="path100471"
       d="" />
    <rect
       style="fill:#008080;fill-rule:evenodd;stroke:none;stroke-width:0.733103;stroke-dashoffset:263.639;stop-color:#000000"
       id="rect94049"
       width="200.44182"
       height="200.44182"
       x="4.9458752"
       y="4.9316249"
       inkscape:export-filename="/home/tqi_rosilva/Desktop/rect94049.png"
       inkscape:export-xdpi="90"
       inkscape:export-ydpi="90" />
    <path
       id="path509"
       style="fill:#cccccc;fill-rule:evenodd;stroke:none;stroke-width:0.339626;stroke-dashoffset:263.639;stop-color:#000000"
       d="m 109.42023,10.336078 c -1.29629,0 -4.75443,2.936419 -6.03876,5.017474 -2.08144,3.37266 -3.16925,8.344637 -2.70402,13.553815 0.70621,7.907484 0.30958,6.999863 -2.504667,9.454881 -7.411081,6.465067 -10.549878,9.24366 -12.281093,13.235169 -1.43556,3.309858 -1.941117,6.315463 -1.826588,10.856983 0.09063,3.594225 0.254085,4.34226 1.506331,6.890536 1.931698,3.930907 6.185714,7.207513 11.117732,8.563698 1.410091,0.387736 1.966992,0.448105 4.193425,0.453643 1.41208,0.0032 3.16638,-0.07483 3.89859,-0.173837 1.27943,-0.172976 1.33385,-0.166106 1.40138,0.17317 0.24015,1.206576 0.5187,5.790054 0.51548,8.483133 -0.004,2.993257 -0.0294,3.242644 -0.47303,4.562493 -1.08713,3.234056 -3.25587,5.162835 -6.304852,5.606503 -1.088301,0.158368 -2.766328,-0.141592 -3.902934,-0.697678 -0.892871,-0.436848 -2.580103,-1.908825 -2.580103,-2.250825 0,-0.08556 0.440768,-0.324034 0.979498,-0.530197 1.909891,-0.730873 2.786628,-1.733995 2.781356,-3.181509 -0.0052,-1.481613 -0.993705,-2.980997 -2.157565,-3.273107 -0.866121,-0.217386 -2.102532,0.035 -2.75361,0.561954 -0.99437,0.804821 -1.332068,1.624948 -1.328491,3.224634 0.0026,1.198805 0.07392,1.514781 0.571981,2.538989 0.799698,1.644484 2.351539,3.188436 3.980815,3.959754 1.920914,0.909399 3.565903,1.079524 5.539635,0.573321 2.5988,-0.666514 5.23537,-3.458352 6.31722,-6.689627 0.58616,-1.750492 0.66161,-3.047136 0.41989,-7.205785 -0.1266,-2.177955 -0.163,-4.355587 -0.2173,-4.832601 -0.24824,-2.180679 0.45076,-1.741948 1.83229,-2.573758 5.1982,-3.129824 7.58187,-7.396351 7.25492,-12.984784 -0.19788,-3.382505 -1.24593,-5.875587 -3.34999,-7.967982 -2.07041,-2.058931 -5.20526,-3.409831 -7.92085,-3.413176 -0.77585,-0.0013 -0.99165,-0.06159 -1.0664,-0.300532 -0.17383,-0.555595 -0.75685,-5.76617 -0.90294,-7.495619 -0.2986,-3.53491 0.094,-2.898517 2.13348,-4.507338 6.26257,-4.940046 8.83846,-11.119336 8.25347,-19.799102 -0.24053,-3.568969 -0.67391,-5.250036 -1.87306,-7.265288 -0.96067,-1.614462 -1.89274,-2.567405 -2.51124,-2.567405 z m 1.75839,3.982491 v 3.3e-4 c 0.20894,0.0119 0.30058,0.207999 0.54758,0.868172 1.78842,4.779963 -0.14858,11.660433 -4.63536,16.464823 -1.03869,1.112212 -3.9929,3.331271 -4.43478,3.331271 -0.074,0 -0.21846,-0.287142 -0.3069,-0.641853 -0.51139,-2.05109 -0.42408,-4.164122 -0.2594,-6.838053 0.2539,-4.122772 2.48867,-7.987913 5.10672,-10.587871 1.21626,-1.207869 2.86952,-2.343226 3.72407,-2.557377 0.10581,-0.02652 0.18845,-0.04341 0.25807,-0.03946 z m -9.01566,28.151527 c 0.005,2.59e-4 0.007,0.0013 0.009,0.0039 0.12247,0.148407 1.07229,9.63126 0.97449,9.729059 -0.0366,0.03662 -0.64778,0.215187 -1.35792,0.396812 -3.889313,0.99472 -6.376974,3.262433 -7.431442,6.773873 -0.217095,0.722988 -0.307552,1.584245 -0.305876,2.909721 0.0026,2.195622 0.375593,3.662247 1.348894,5.305975 0.578437,0.976872 2.157959,2.652984 2.500211,2.652984 0.0883,0 -0.149422,-0.454542 -0.528528,-1.009916 -2.756023,-4.037581 -1.149835,-9.002785 3.656881,-11.303937 1.14691,-0.549067 2.6594,-1.101511 2.68373,-0.980158 0.10563,0.526451 2.19118,19.712009 2.14754,19.755642 -0.25943,0.259435 -2.22527,0.591006 -3.86482,0.651887 -1.52733,0.05673 -2.313485,-0.0019 -3.508785,-0.261758 -1.783511,-0.387826 -2.61983,-0.682278 -4.279012,-1.507017 -3.935383,-1.956196 -6.982448,-5.319792 -7.871367,-8.689055 -1.030184,-3.904746 -0.420489,-8.958155 1.469904,-12.180798 1.109242,-1.890962 4.129196,-4.583523 11.444347,-10.2041 1.501433,-1.153613 2.782163,-2.050955 2.912733,-2.042888 z m 2.90872,14.421592 1.41441,0.0045 c 0.77776,0.0026 1.75174,0.08233 2.16458,0.177511 5.43188,1.252266 7.78896,8.112003 4.85835,14.138442 -0.85305,1.754154 -2.65783,3.52529 -4.6698,4.582553 -1.29782,0.68198 -1.35026,0.696342 -1.44618,0.395802 v -3.29e-4 c -0.0375,-0.117679 -0.23207,-1.677374 -0.43225,-3.465995 -0.41948,-3.748195 -1.66044,-14.23945 -1.79684,-15.190479 z"
       sodipodi:nodetypes="sssssssscssccsssscsscssscssssscssssssccsssssssscccssscsscsccscssssccccsssccscc" />
    <path
       id="path597"
       style="fill:#cccccc;fill-rule:evenodd;stroke:none;stroke-width:0.339626;stroke-dashoffset:263.639;stop-color:#000000"
       d="m 143.79508,112.3376 -0.19757,0.56129 c -0.10875,0.30868 -1.55298,4.52793 -3.20925,9.37604 -1.65625,4.84811 -3.04708,8.91103 -3.09092,9.02871 -0.0614,0.16479 0.47254,0.21395 2.3247,0.21395 h 2.40494 l 0.38711,-1.2018 0.38679,-1.20214 3.00233,0.0465 3.00232,0.0468 0.33229,1.15534 0.33196,1.15533 h 2.36448 c 1.30054,0 2.36347,-0.0578 2.36215,-0.12837 -0.002,-0.0706 -1.37255,-4.36459 -3.04746,-9.54219 l -3.04545,-9.41382 -2.15421,-0.0478 z m 2.10574,7.91951 c 0.0247,0.0272 0.35315,1.03151 0.72977,2.23177 l 0.68465,2.18229 h -1.49032 -1.49061 l 0.76085,-2.23177 c 0.41842,-1.22743 0.78097,-2.20946 0.80566,-2.18229 z" />
    <path
       style="fill:#cccccc;fill-rule:evenodd;stroke:none;stroke-width:0.339626;stroke-dashoffset:263.639;stop-color:#000000"
       d="m 115.00335,112.34747 v 9.58498 9.58498 h 2.31066 2.31067 v -9.58498 -9.58498 h -2.31067 z"
       id="path601" />
    <path
       style="fill:#cccccc;fill-rule:evenodd;stroke:none;stroke-width:0.339626;stroke-dashoffset:263.639;stop-color:#000000"
       d="m 76.70455,112.34747 -2.021495,5.93613 c -1.638979,4.81312 -2.047998,5.85737 -2.162235,5.51992 -0.07749,-0.22891 -1.007483,-2.88091 -2.066629,-5.89333 l -1.925552,-5.47713 -2.351112,-0.0478 c -1.293125,-0.0262 -2.351753,0.0123 -2.352458,0.0856 -6.4e-4,0.0732 -0.269423,4.25407 -0.597054,9.29046 -0.327638,5.03639 -0.596576,9.29415 -0.597721,9.46162 -0.0019,0.27906 0.18746,0.30051 2.265869,0.25674 l 2.267875,-0.0478 0.196898,-2.90973 c 0.108422,-1.60035 0.207185,-3.33335 0.219301,-3.85111 0.01404,-0.59961 0.07324,-0.84816 0.163473,-0.68464 0.0779,0.14121 0.708568,1.89347 1.401371,3.8939 l 1.259635,3.63716 h 2.25484 2.254833 l 0.620459,-1.7544 c 0.341217,-0.96491 0.915565,-2.64014 1.276344,-3.72273 l 0.655891,-1.96835 0.107309,1.11254 c 0.059,0.6119 0.152398,2.07532 0.207598,3.25205 0.05518,1.17673 0.14043,2.35131 0.189213,2.6102 l 0.08859,0.47069 h 2.236784 2.236785 l -0.102632,-1.41208 c -0.05635,-0.77664 -0.314111,-5.08988 -0.572989,-9.58497 l -0.470688,-8.17291 h -2.341415 z"
       id="path599" />
    <path
       style="fill:#cccccc;fill-rule:evenodd;stroke:none;stroke-width:0.339626;stroke-dashoffset:263.639;stop-color:#000000"
       d="m 130.52879,112.17932 c -1.09182,-0.005 -3.22885,0.51039 -4.37495,1.05505 -2.28955,1.08805 -4.40964,3.69147 -5.06962,6.22529 -0.30632,1.17604 -0.34032,3.27403 -0.0739,4.56115 0.69704,3.36721 3.6783,6.43414 7.04767,7.25058 1.26243,0.3059 3.56647,0.2948 4.79316,-0.0231 1.35254,-0.35047 2.87043,-1.12486 3.73377,-1.90482 l 0.68965,-0.62314 -1.56752,-1.57387 -1.56719,-1.57421 -0.83809,0.56396 c -2.61532,1.75999 -6.13595,0.77367 -7.52938,-2.10941 -0.53039,-1.09741 -0.5515,-3.03639 -0.0452,-4.15699 0.84207,-1.86358 2.66333,-3.07194 4.63103,-3.0722 1.19095,-1.4e-4 2.73301,0.4937 3.21894,1.03064 0.16861,0.18631 0.39273,0.33865 0.49777,0.33865 0.10505,0 0.88237,-0.6956 1.72765,-1.54579 l 1.5371,-1.5458 -0.68464,-0.59337 c -1.42737,-1.23669 -4.24082,-2.29402 -6.12634,-2.30265 z"
       id="path595" />
    <path
       style="fill:#cccccc;fill-rule:evenodd;stroke:none;stroke-width:0.339626;stroke-dashoffset:263.639;stop-color:#000000"
       d="m 83.681008,112.00516 v 6.21592 c 0,3.76405 0.07356,6.61653 0.186872,7.23153 0.497489,2.7001 2.32814,4.79877 5.031175,5.76797 0.662276,0.23746 1.229553,0.2933 2.486503,0.2447 1.40612,-0.0543 1.786396,-0.13831 2.784034,-0.61444 1.531399,-0.73087 2.816327,-2.00382 3.560268,-3.52683 l 0.585353,-1.19813 0.05149,-7.06036 0.05149,-7.06036 h -2.23377 -2.233777 v 6.22161 c 0,4.19775 -0.0634,6.41108 -0.194899,6.80362 -0.268317,0.80111 -0.7837,1.33854 -1.662792,1.73367 -1.273051,0.57219 -2.808183,0.0176 -3.453626,-1.2476 -0.317508,-0.62238 -0.336973,-1.03237 -0.336973,-7.08611 v -6.42519 h -2.310668 z"
       id="path593" />
    <path
       style="fill:#cccccc;fill-rule:evenodd;stroke:none;stroke-width:0.339626;stroke-dashoffset:263.639;stop-color:#000000"
       d="m 106.70207,111.91958 c -1.34073,0 -1.66707,0.0622 -2.51659,0.47938 -2.58697,1.27037 -3.87207,4.38396 -2.88332,6.98615 0.76576,2.01532 1.96078,3.03172 4.71861,4.01424 2.1069,0.75062 2.39721,0.93525 2.64262,1.67884 0.5997,1.81713 -1.83086,3.08715 -3.26976,1.7086 -0.26654,-0.25537 -0.53266,-0.72032 -0.59138,-1.03331 l -0.10664,-0.56898 h -2.22976 -2.2301 l 0.0913,1.00356 c 0.21701,2.39329 1.92074,4.5116 4.32113,5.37283 1.29253,0.46375 3.61748,0.34372 4.91517,-0.25373 1.28673,-0.5924 2.52154,-1.76894 3.14206,-2.9943 0.45429,-0.89708 0.50078,-1.14776 0.50078,-2.70046 0,-1.51519 -0.0536,-1.81962 -0.464,-2.65298 -0.5079,-1.03109 -1.42625,-2.0626 -2.36483,-2.65566 -0.33195,-0.20976 -1.41027,-0.66843 -2.39624,-1.01928 -2.00568,-0.71369 -2.44873,-1.03619 -2.44873,-1.78347 0,-0.61714 0.26682,-0.97552 0.83274,-1.11756 0.55893,-0.14028 1.62862,0.32306 1.74135,0.75418 0.0846,0.32367 0.22932,0.34466 2.37685,0.34466 h 2.28627 l -0.0969,-0.55627 c -0.37062,-2.12563 -1.51028,-3.65828 -3.35335,-4.50934 -0.93618,-0.4323 -1.27799,-0.4971 -2.61721,-0.4971 z"
       id="path591" />
    <path
       style="fill:#cccccc;fill-rule:evenodd;stroke:none;stroke-width:0.339626;stroke-dashoffset:263.639;stop-color:#000000"
       d="m 91.36082,105.67222 -1.015925,2.1492 c -0.558674,1.18204 -1.015596,2.18332 -1.015596,2.22509 0,0.0418 0.905007,0.0734 2.011131,0.0705 l 2.011137,-0.005 0.987514,-2.0917 c 0.543122,-1.15029 0.985994,-2.14913 0.984169,-2.21974 -0.0019,-0.0706 -0.894307,-0.12837 -1.983055,-0.12837 z"
       id="path589" />
    <path
       style="fill:#cccccc;fill-rule:evenodd;stroke:none;stroke-width:0.339626;stroke-dashoffset:263.639;stop-color:#000000"
       d="m 97.786018,88.600321 c -0.03383,0.03383 0.02665,0.535488 0.134388,1.114879 l 0.195903,1.053372 1.896471,0.43793 c 2.11098,0.487546 4.90258,0.932659 5.11642,0.815686 0.0764,-0.04179 0.20146,-0.241954 0.2778,-0.444616 0.0763,-0.202669 0.19163,-0.610904 0.25607,-0.907284 l 0.11701,-0.538887 -0.90829,-0.114998 c -2.0902,-0.264831 -4.0822,-0.643885 -5.506883,-1.047689 -0.834592,-0.236554 -1.545062,-0.40222 -1.578889,-0.368393 z"
       id="path553" />
    <path
       style="fill:#cccccc;fill-rule:evenodd;stroke:none;stroke-width:0.339626;stroke-dashoffset:263.639;stop-color:#000000"
       d="m 107.22023,68.214521 c -0.0312,0.03254 -0.007,0.521302 0.0548,1.086135 l 0.11166,1.026962 1.95865,1.324816 1.95898,1.325159 0.41018,-0.383776 c 0.22564,-0.210975 0.4799,-0.512129 0.56463,-0.669262 h -3.3e-4 c 0.12408,-0.230104 -0.0205,-0.392077 -0.74315,-0.832735 -0.49346,-0.300915 -1.65358,-1.084595 -2.5781,-1.741689 -0.92451,-0.657094 -1.70619,-1.168168 -1.73734,-1.13561 z"
       id="path551" />
    <path
       style="fill:#cccccc;fill-rule:evenodd;stroke:none;stroke-width:0.339626;stroke-dashoffset:263.639;stop-color:#000000"
       d="m 106.7813,64.080267 c -0.13055,0 -0.0869,0.705696 0.10196,1.651762 0.0468,0.234691 0.58497,0.696723 1.48628,1.276014 1.31777,0.846941 4.70457,2.708592 4.9426,2.716834 0.0584,0.0019 0.2039,-0.345234 0.32326,-0.771558 0.11936,-0.426317 0.18696,-0.802317 0.15043,-0.835743 -0.0366,-0.03345 -0.68237,-0.370398 -1.43547,-0.748825 -0.75311,-0.378446 -2.28204,-1.27331 -3.39746,-1.988405 -1.11543,-0.715096 -2.09268,-1.300079 -2.1716,-1.300079 z"
       id="path549" />
    <path
       style="fill:#cccccc;fill-rule:evenodd;stroke:none;stroke-width:0.339626;stroke-dashoffset:263.639;stop-color:#000000"
       d="m 98.063489,61.252774 c -0.09838,0.06081 -0.291541,0.329132 -0.429571,0.596052 l -0.251058,0.485069 1.321809,0.990185 c 1.825381,1.367156 4.525821,3.555132 4.809201,3.896575 0.45061,0.542954 0.71895,0.347834 0.61177,-0.444618 -0.20555,-1.519858 -0.0266,-1.329209 -3.9641,-4.223178 -1.055486,-0.775743 -1.999676,-1.360881 -2.098051,-1.300085 z"
       id="path547" />
    <path
       style="fill:#cccccc;fill-rule:evenodd;stroke:none;stroke-width:0.339626;stroke-dashoffset:263.639;stop-color:#000000"
       d="m 106.40455,60.314735 c -0.15985,0 -0.16881,0.622116 -0.0197,1.36761 0.13816,0.690817 1.47997,1.603231 4.84497,3.294506 2.28932,1.150631 2.64959,1.281533 2.81044,1.021276 0.0463,-0.07485 0.0401,-0.462569 -0.0134,-0.861483 -0.0953,-0.7108 -0.12272,-0.736994 -1.37329,-1.31479 -1.43356,-0.662347 -3.9773,-2.082368 -5.26485,-2.939149 -0.46944,-0.312377 -0.91231,-0.56797 -0.98417,-0.56797 z"
       id="path545" />
    <path
       style="fill:#cccccc;fill-rule:evenodd;stroke:none;stroke-width:0.339626;stroke-dashoffset:263.639;stop-color:#000000"
       d="m 100.10772,59.287773 c -0.0772,0 -0.376639,0.198749 -0.665256,0.44161 l -0.524511,0.441604 2.265867,1.682852 c 1.24631,0.925689 2.32397,1.689716 2.39457,1.6979 0.0706,0.0082 0.12741,-0.158253 0.12637,-0.370069 -0.007,-1.429143 -0.13782,-1.627962 -1.8363,-2.787708 -0.89114,-0.608492 -1.68354,-1.106189 -1.76074,-1.106189 z"
       id="path543" />
    <path
       style="fill:#cccccc;fill-rule:evenodd;stroke:none;stroke-width:0.339626;stroke-dashoffset:263.639;stop-color:#000000"
       d="m 102.92183,58.012096 c -0.35911,6.47e-4 -1.44269,0.402142 -1.43514,0.566631 0.005,0.101234 1.70413,1.393692 1.83263,1.393692 0.0312,0 0.006,-0.404367 -0.0558,-0.898597 -0.062,-0.494222 -0.1689,-0.960207 -0.23735,-1.035649 -0.0164,-0.01811 -0.053,-0.0262 -0.10431,-0.02607 z"
       id="path541" />
    <path
       style="fill:#cccccc;fill-rule:evenodd;stroke:none;stroke-width:0.339626;stroke-dashoffset:263.639;stop-color:#000000"
       d="m 106.92571,57.546421 c -0.55972,-0.02109 -0.99386,0.09371 -0.99386,0.355688 0,0.520468 3.33926,2.534122 6.16177,3.71572 0.98899,0.414026 1.19812,0.46867 1.19812,0.31424 0,-0.166688 -0.55606,-1.174948 -0.92533,-1.678175 -0.19723,-0.26877 -0.93604,-0.788086 -1.64208,-1.153995 -0.70603,-0.365902 -1.62908,-0.858398 -2.05124,-1.094492 -0.50234,-0.280932 -1.18765,-0.437871 -1.74738,-0.458986 z"
       id="path539" />
    <path
       style="fill:#cccccc;fill-rule:evenodd;stroke:none;stroke-width:0.339626;stroke-dashoffset:263.639;stop-color:#000000"
       d="m 88.123817,55.96118 c -0.165084,0.02258 -0.221513,0.150444 -0.314571,0.354692 -0.242499,0.532228 -0.189135,0.594797 0.835407,0.978819 0.42362,0.158783 1.617464,0.741127 2.652991,1.294069 1.035514,0.552942 1.969955,1.013409 2.076649,1.023281 0.106701,0.0099 0.240435,-0.155244 0.297195,-0.367054 0.05673,-0.211816 0.104346,-0.474731 0.10564,-0.584356 0.0032,-0.254376 -0.985612,-0.801502 -3.249709,-1.798519 -1.551473,-0.683203 -2.128454,-0.938556 -2.403602,-0.900932 z"
       id="path535" />
    <path
       style="fill:#cccccc;fill-rule:evenodd;stroke:none;stroke-width:0.339626;stroke-dashoffset:263.639;stop-color:#000000"
       d="m 89.245725,53.962081 -0.306219,0.378091 c -0.168409,0.20798 -0.282801,0.44868 -0.254065,0.534874 0.02872,0.08619 0.782283,0.447716 1.674494,0.80332 0.892212,0.35561 2.084484,0.881525 2.64931,1.169035 1.27941,0.651233 1.354315,0.657133 1.598276,0.121683 0.109256,-0.239775 0.198904,-0.513681 0.198904,-0.60875 0,-0.21445 -2.060924,-1.163142 -4.059039,-1.868392 z"
       id="path533" />
    <path
       style="fill:#cccccc;fill-rule:evenodd;stroke:none;stroke-width:0.339626;stroke-dashoffset:263.639;stop-color:#000000"
       d="m 91.037892,52.042209 -0.426563,0.400493 c -0.234548,0.220336 -0.426233,0.454024 -0.426233,0.519161 0,0.06513 0.750966,0.361788 1.668815,0.659571 0.917842,0.297777 2.130951,0.763743 2.695777,1.03532 0.564832,0.271564 1.06126,0.500381 1.10318,0.508461 0.04192,0.0081 0.292246,-0.192325 0.556274,-0.445284 0.264034,-0.252953 0.480049,-0.511767 0.480049,-0.575325 0,-0.156584 -3.250492,-1.438426 -4.580212,-1.806211 z"
       id="path529" />
    <path
       style="fill:#cccccc;fill-rule:evenodd;stroke:none;stroke-width:0.339626;stroke-dashoffset:263.639;stop-color:#000000"
       d="m 93.365942,50.256059 c -0.199609,0.01087 -0.335194,0.104378 -0.597061,0.290842 -0.291528,0.207592 -0.529861,0.439999 -0.529861,0.516819 0,0.07682 0.744348,0.3891 1.654104,0.69367 0.909756,0.304563 2.122858,0.769785 2.695777,1.033981 1.275852,0.588341 1.31576,0.590993 2.181293,0.149428 0.388473,-0.198179 0.632343,-0.420339 0.549585,-0.501112 -0.238036,-0.232329 -3.825351,-1.660056 -4.972676,-1.979038 -0.517725,-0.143936 -0.781559,-0.215478 -0.981161,-0.20459 z"
       id="path527" />
    <path
       style="fill:#cccccc;fill-rule:evenodd;stroke:none;stroke-width:0.339626;stroke-dashoffset:263.639;stop-color:#000000"
       d="m 95.908939,48.030304 -0.632156,0.4513 c -0.347698,0.248089 -0.614644,0.509406 -0.59338,0.581012 0.02128,0.07161 0.885354,0.424512 1.920538,0.783926 1.035191,0.359408 2.537117,0.968042 3.337294,1.352569 1.677765,0.806257 1.565745,0.775717 2.100725,0.572317 0.34486,-0.131115 0.39857,-0.245714 0.33096,-0.706369 -0.072,-0.490742 -0.21152,-0.610096 -1.29908,-1.112211 -0.67008,-0.309363 -2.106243,-0.868567 -3.191543,-1.242582 z"
       id="path525" />
    <path
       style="fill:#cccccc;fill-rule:evenodd;stroke:none;stroke-width:0.339626;stroke-dashoffset:263.639;stop-color:#000000"
       d="m 96.123892,23.172947 c -0.353016,0 -2.673859,1.003971 -4.465877,1.931905 -10.037342,5.197495 -16.750315,14.496653 -18.683553,25.881647 -0.369344,2.175108 -0.504527,6.643988 -0.26677,8.810078 0.277464,2.527776 0.944449,5.684 1.656109,7.836267 1.129354,3.415497 3.298796,7.502773 5.609515,10.568146 1.344975,1.784229 4.77757,5.208577 6.603375,6.587668 1.573125,1.188229 4.298834,2.946725 4.452843,2.872615 0.05305,-0.02555 0.457976,-0.308308 0.899593,-0.628475 l 0.802983,-0.58235 -1.660786,-0.981834 c -3.39217,-2.005568 -6.294045,-4.479417 -9.229623,-7.868359 -1.118505,-1.291236 -3.232229,-4.639436 -4.257612,-6.744116 -1.235175,-2.535292 -2.459476,-6.133573 -2.880973,-8.466753 l -0.290176,-1.605295 0.529194,-1.074768 c 1.302253,-2.645247 4.282487,-4.202917 7.596912,-3.970452 1.073047,0.07526 1.180252,0.05201 1.305099,-0.281475 0.188909,-0.504528 -0.0557,-0.614049 -1.37664,-0.617115 -1.379881,-0.0032 -3.481256,0.514115 -4.632359,1.140623 -1.04459,0.568539 -2.478391,2.087764 -3.049129,3.230987 -0.301613,0.604139 -0.440724,0.755844 -0.486402,0.530527 -0.104184,-0.513836 0.952122,-2.442332 1.832954,-3.346653 1.447114,-1.485696 3.368875,-2.222359 6.232311,-2.388555 1.853706,-0.107594 1.916915,-0.124252 1.973021,-0.521167 l 0.05783,-0.409853 -1.855014,0.09427 c -3.755621,0.191121 -6.564884,1.782967 -7.800169,4.419746 -0.391125,0.834883 -0.644524,1.062658 -0.644524,0.579336 0,-0.558389 0.938316,-2.072943 1.813896,-2.927776 1.621397,-1.582997 4.321488,-2.626461 7.473223,-2.887992 1.398079,-0.116016 1.506739,-0.152527 1.603963,-0.539894 0.05738,-0.228506 0.0756,-0.443046 0.04076,-0.476704 -0.03487,-0.03364 -0.793514,0.01249 -1.686197,0.102625 -3.969863,0.400835 -7.524478,2.382519 -8.80907,4.911168 -0.159876,0.314693 -0.334825,0.528334 -0.38879,0.474369 -0.05395,-0.05395 0.147727,-0.597954 0.448293,-1.20849 1.485126,-3.016713 5.12475,-5.050505 9.568594,-5.347085 1.553096,-0.103654 1.599363,-0.118934 1.858364,-0.619787 l 0.265432,-0.513818 -1.519386,0.09862 c -4.527586,0.293332 -8.549098,2.514488 -10.112829,5.585444 l -0.556274,1.092486 0.0013,-0.751503 c 0.0039,-1.717455 2.015931,-4.029993 4.659774,-5.354777 1.921878,-0.963021 3.670631,-1.421923 6.287465,-1.650093 1.726157,-0.150509 2.010569,-0.220187 2.269214,-0.553932 0.533089,-0.687887 0.408437,-0.737873 -1.506344,-0.606745 -2.445366,0.167464 -4.435143,0.683539 -6.52783,1.692879 -1.90846,0.920488 -3.578006,2.301042 -4.448495,3.678944 -0.263329,0.41682 -0.523585,0.758017 -0.578333,0.758185 -0.134123,3.5e-4 0.270419,-3.207847 0.597391,-4.737661 0.412939,-1.932034 1.427668,-4.924915 2.397916,-7.072065 1.621274,-3.587878 3.672002,-6.611513 6.430548,-9.482012 3.157039,-3.285165 5.926,-5.321254 10.087755,-7.417395 1.358099,-0.684025 2.419017,-1.243585 2.357464,-1.243585 z"
       id="path519" />
    <path
       style="fill:#cccccc;fill-rule:evenodd;stroke:none;stroke-width:0.339626;stroke-dashoffset:263.639;stop-color:#000000"
       d="m 119.22285,22.671835 c -0.10856,0.0069 0.22069,0.160924 0.73177,0.342317 2.6439,0.938381 6.79151,3.257801 9.25503,5.175597 4.53453,3.530032 6.47367,6.112755 7.43478,9.901556 0.80953,3.191299 0.73272,5.781255 -0.26008,8.761606 -0.75919,2.279053 -1.67768,3.722091 -3.56763,5.605498 -1.44243,1.437436 -1.87323,1.754322 -3.44093,2.528629 -0.99831,0.49309 -2.55032,1.083941 -3.50376,1.333847 -1.50372,0.394134 -2.05461,0.449645 -4.53575,0.456981 -2.36202,0.007 -3.06606,-0.05324 -4.30241,-0.367054 -1.42582,-0.361931 -2.20169,-0.465035 -2.20169,-0.292848 0,0.04522 0.26454,0.495853 0.58803,1.001558 l 0.58803,0.919653 1.25195,0.186872 c 3.28072,0.49005 6.23993,0.382159 8.93443,-0.325943 1.74565,-0.458753 4.26375,-1.626469 5.66668,-2.62758 1.5029,-1.072446 3.31732,-3.101134 4.25962,-4.763066 2.35208,-4.148363 2.66024,-8.925292 0.88555,-13.729268 -0.11199,-0.303166 -0.0905,-0.298088 0.18888,0.04347 0.63376,0.774805 2.00743,3.353065 2.24314,4.210479 0.35424,1.288551 0.47524,4.862133 0.21462,6.334935 -1.27369,7.197577 -6.65937,12.705509 -13.92851,14.244082 -2.34938,0.49727 -6.03936,0.475378 -8.1378,-0.04813 -0.40312,-0.100561 -0.40941,-0.08533 -0.2982,0.726093 0.0625,0.455939 0.20553,0.885969 0.31792,0.955421 0.79087,0.488782 5.87158,0.483296 8.28757,-0.009 7.85031,-1.599797 13.91562,-8.06223 14.76157,-15.727694 0.0864,-0.782542 0.196,-1.461644 0.24337,-1.509016 0.0474,-0.04735 0.14143,0.724216 0.20894,1.714609 0.36213,5.312922 -1.41815,10.450229 -4.86102,14.028125 -2.02991,2.109526 -4.61992,3.63703 -7.4652,4.403031 -2.73397,0.736036 -7.51568,0.619787 -10.41704,-0.253393 -0.92998,-0.279883 -1.00033,-0.218628 -1.03265,0.897251 l -0.0181,0.622795 1.71161,0.41019 c 1.46522,0.351107 2.16741,0.412764 4.87807,0.427895 2.81196,0.01572 3.33892,-0.02736 4.70691,-0.385775 3.27454,-0.857822 5.67028,-2.188202 7.99907,-4.441477 3.46396,-3.351622 5.41069,-7.955322 5.45172,-12.892522 0.0118,-1.427163 0.048,-1.670574 0.18687,-1.25662 0.28409,0.846806 0.22209,5.283307 -0.0986,7.062704 -0.68712,3.81249 -2.32729,7.163692 -4.75906,9.723709 -4.12275,4.340177 -9.4754,5.818569 -16.32676,4.509007 -0.94989,-0.181561 -2.28793,-0.520972 -2.97357,-0.754175 -0.68565,-0.233203 -1.30838,-0.385711 -1.384,-0.338979 -0.0756,0.04671 -0.23051,0.366194 -0.34399,0.710044 -0.27253,0.825767 -0.15386,0.904431 2.36783,1.568525 3.01437,0.793843 4.23851,0.933924 7.31309,0.837082 2.29666,-0.07234 2.98713,-0.159423 4.27901,-0.54056 4.98069,-1.469433 8.59584,-4.537574 10.90612,-9.255693 0.89224,-1.822157 0.95771,-1.556312 0.18988,0.770225 -1.74047,5.273661 -5.27307,9.428927 -9.4673,11.13578 -2.0072,0.81684 -3.61257,1.102656 -6.16445,1.0975 -3.31767,-0.0067 -6.09532,-0.659093 -9.6144,-2.258184 l -1.31312,-0.596718 -0.52183,0.573986 c -0.28703,0.315683 -0.5241,0.633721 -0.52686,0.706711 -0.0164,0.434423 5.50657,2.445916 8.1251,2.959197 2.2481,0.440665 5.7046,0.40907 7.66912,-0.06987 3.67627,-0.896255 6.76528,-2.800944 8.94046,-5.5129 0.44995,-0.56099 0.85162,-0.986356 0.89257,-0.945394 0.041,0.04095 -0.35139,0.833117 -0.87184,1.760411 -4.67262,8.32521 -12.31907,14.270275 -21.40909,16.645342 -2.50024,0.653264 -4.02129,0.888193 -6.57296,1.014928 l -2.10908,0.104635 -0.31658,0.936701 c -0.1741,0.515156 -0.29141,0.977286 -0.26075,1.026962 0.14757,0.239026 5.29759,-0.17188 7.3629,-0.587361 7.42757,-1.494221 13.45794,-4.701437 18.65949,-9.92429 6.12798,-6.153078 9.6374,-13.819072 10.37458,-22.66136 0.49482,-5.935102 -0.76862,-12.416012 -3.52583,-18.084829 -3.38565,-6.960919 -9.0473,-12.662165 -15.97641,-16.088065 -1.73693,-0.858773 -5.1312,-2.155876 -5.56906,-2.128137 z"
       id="path517" />
    <g
       aria-label="MINISTÉRIO DE"
       id="text4382"
       style="font-size:9.12854px;line-height:20.5;font-family:'Bebas Neue';-inkscape-font-specification:'Bebas Neue';text-align:center;letter-spacing:0.941383px;text-anchor:middle;fill:#cccccc;fill-rule:evenodd;stroke-width:0.646905;stroke-dashoffset:263.639;stop-color:#000000">
      <path
         d="m 97.726214,103.56283 h 1.433181 l 0.638998,4.5734 h 0.01826 l 0.639,-4.5734 h 1.43318 v 6.38998 h -0.94937 v -4.83812 h -0.0183 l -0.73028,4.83812 h -0.839826 l -0.730283,-4.83812 h -0.01826 v 4.83812 h -0.87634 z"
         id="path123" />
      <path
         d="m 103.57874,103.56283 h 1.00413 v 6.38998 h -1.00413 z"
         id="path125" />
      <path
         d="m 106.27279,103.56283 h 1.25974 l 0.97676,3.82486 h 0.0183 v -3.82486 h 0.8946 v 6.38998 h -1.03153 l -1.20496,-4.66468 h -0.0183 v 4.66468 h -0.8946 z"
         id="path127" />
      <path
         d="m 111.11205,103.56283 h 1.00413 v 6.38998 h -1.00413 z"
         id="path129" />
      <path
         d="m 115.11148,110.0441 q -0.73028,0 -1.10455,-0.41079 -0.37427,-0.41991 -0.37427,-1.19584 v -0.36514 h 0.94937 v 0.43817 q 0,0.62074 0.52033,0.62074 0.2556,0 0.38339,-0.14605 0.13693,-0.15519 0.13693,-0.49294 0,-0.40166 -0.18257,-0.7029 -0.18257,-0.31037 -0.67551,-0.73941 -0.62074,-0.54772 -0.86721,-0.98589 -0.24647,-0.44729 -0.24647,-1.00414 0,-0.75766 0.3834,-1.16845 0.3834,-0.41991 1.11368,-0.41991 0.72115,0 1.0863,0.41991 0.37427,0.41079 0.37427,1.18671 v 0.26473 h -0.94937 v -0.32863 q 0,-0.32863 -0.1278,-0.47468 -0.1278,-0.15519 -0.37427,-0.15519 -0.50207,0 -0.50207,0.61161 0,0.34689 0.18257,0.64813 0.1917,0.30124 0.68464,0.73028 0.62987,0.54772 0.86721,0.99502 0.23734,0.44729 0.23734,1.04978 0,0.78505 -0.39252,1.20496 -0.3834,0.41992 -1.12282,0.41992 z"
         id="path131" />
      <path
         d="m 118.92835,104.47569 h -1.04978 v -0.91286 h 3.10371 v 0.91286 h -1.04979 v 5.47712 h -1.00414 z"
         id="path133" />
      <path
         d="m 122.40746,103.56283 h 2.73856 v 0.91286 h -1.73442 v 1.68878 h 1.37841 v 0.91285 h -1.37841 v 1.96264 h 1.73442 v 0.91285 h -2.73856 z m 1.46056,-1.47882 h 1.09543 l -0.97675,1.04978 h -0.75767 z"
         id="path135" />
      <path
         d="m 126.66249,103.56283 h 1.48795 q 0.77593,0 1.13194,0.36515 0.35602,0.35601 0.35602,1.10455 v 0.39253 q 0,0.99501 -0.65726,1.25973 v 0.0183 q 0.36514,0.10954 0.5112,0.4473 0.15518,0.33776 0.15518,0.90373 v 1.12281 q 0,0.27385 0.0183,0.44729 0.0183,0.16432 0.0913,0.32863 h -1.0224 q -0.0548,-0.15518 -0.073,-0.29211 -0.0183,-0.13693 -0.0183,-0.49294 v -1.16846 q 0,-0.43817 -0.14605,-0.61161 -0.13693,-0.17344 -0.48381,-0.17344 h -0.34689 v 2.73856 h -1.00414 z m 1.36928,2.73857 q 0.30124,0 0.4473,-0.15519 0.15519,-0.15518 0.15519,-0.52033 v -0.49294 q 0,-0.34688 -0.1278,-0.50207 -0.11867,-0.15518 -0.3834,-0.15518 h -0.45643 v 1.82571 z"
         id="path137" />
      <path
         d="m 131.28268,103.56283 h 1.00414 v 6.38998 h -1.00414 z"
         id="path139" />
      <path
         d="m 135.42817,110.0441 q -0.73941,0 -1.13194,-0.41992 -0.39253,-0.41991 -0.39253,-1.18671 v -3.3593 q 0,-0.7668 0.39253,-1.18671 0.39253,-0.41991 1.13194,-0.41991 0.73941,0 1.13194,0.41991 0.39253,0.41991 0.39253,1.18671 v 3.3593 q 0,0.7668 -0.39253,1.18671 -0.39253,0.41992 -1.13194,0.41992 z m 0,-0.91286 q 0.52033,0 0.52033,-0.62987 v -3.4871 q 0,-0.62987 -0.52033,-0.62987 -0.52033,0 -0.52033,0.62987 v 3.4871 q 0,0.62987 0.52033,0.62987 z"
         id="path141" />
      <path
         d="m 140.97148,103.56283 h 1.53359 q 0.74854,0 1.12281,0.40166 0.37427,0.40166 0.37427,1.17758 v 3.2315 q 0,0.77593 -0.37427,1.17759 -0.37427,0.40165 -1.12281,0.40165 h -1.53359 z m 1.51533,5.47713 q 0.24647,0 0.37427,-0.14606 0.13693,-0.14606 0.13693,-0.47468 v -3.32279 q 0,-0.32863 -0.13693,-0.47469 -0.1278,-0.14605 -0.37427,-0.14605 h -0.51119 v 4.56427 z"
         id="path143" />
      <path
         d="m 145.61903,103.56283 h 2.73856 v 0.91286 h -1.73442 v 1.68878 h 1.37841 v 0.91285 h -1.37841 v 1.96264 h 1.73442 v 0.91285 h -2.73856 z"
         id="path145" />
    </g>
    <path
       style="fill:#cccccc;stroke-width:0.214316"
       d="m 59.977629,188.8655 c -0.467012,-0.36735 -0.517609,-0.52878 -0.38794,-1.23786 0.194166,-1.06185 0.08418,-1.34014 -0.529786,-1.34014 -0.817872,0 -1.536499,0.36372 -1.661274,0.84083 -0.147719,0.56492 -0.503004,0.57039 -0.801653,0.0123 -0.576066,-1.07639 0.776761,-2.08957 2.834354,-2.12277 0.784328,-0.0126 1.062332,-0.11322 1.242227,-0.44936 0.337,-0.62969 0.105618,-0.82654 -0.824794,-0.70176 -1.023628,0.13731 -2.078795,-0.37002 -2.571727,-1.23648 -0.405687,-0.71307 -0.710835,-0.78602 -1.133838,-0.27107 -0.532869,0.64871 -2.18832,1.57078 -2.820093,1.57078 -0.417305,0 -0.800145,-0.20492 -1.169781,-0.62616 l -0.549451,-0.62617 -1.109494,0.62617 c -1.302651,0.73517 -2.295895,0.79477 -3.276934,0.19663 -0.881498,-0.53744 -1.191649,-1.32071 -1.0416,-2.63045 0.114869,-1.00259 1.043274,-2.99885 1.842294,-3.96123 0.678024,-0.81666 2.721542,-1.7658 3.801826,-1.7658 0.794576,0 1.069302,0.11291 1.564446,0.64295 0.737783,0.78981 0.811393,0.79421 0.896612,0.0536 0.121055,-1.05205 1.864005,-0.93565 2.31563,0.15466 0.327437,0.79052 0.02985,1.62975 -1.499656,4.22931 -1.317295,2.23886 -1.450605,2.63491 -0.886902,2.63491 0.50232,0 2.38694,-2.02682 3.188485,-3.42907 1.53325,-2.68234 1.78,-2.97078 3.109618,-3.6352 1.805088,-0.90201 3.514229,-0.83855 4.097186,0.15215 0.14862,0.25258 0.231294,0.21595 0.433565,-0.19203 0.300107,-0.60533 1.519203,-0.79217 2.151054,-0.32966 0.71476,0.52319 0.506166,1.51753 -0.891003,4.24738 -1.458925,2.85051 -1.368665,3.18664 0.409651,1.52548 1.421044,-1.32742 2.618683,-3.10917 3.148518,-4.68407 0.388263,-1.15409 0.483702,-1.26916 1.104638,-1.33189 0.88377,-0.0893 1.496837,0.46119 1.496837,1.34397 0,0.64167 -1.499959,3.84275 -2.379265,5.07761 -0.498032,0.69945 -0.524931,1.25533 -0.06079,1.25533 1.02542,0 4.930848,-5.8658 4.754752,-7.14145 -0.05491,-0.3976 0.05286,-0.47656 0.727035,-0.53259 0.574333,-0.0477 0.91243,0.0551 1.23232,0.37506 0.786501,0.7865 0.542061,1.7447 -1.191169,4.66914 -1.330089,2.24424 -1.470261,2.62984 -0.95599,2.62984 0.993734,0 4.523458,-4.79596 5.2446,-7.12604 0.07997,-0.25844 0.334759,-0.37403 0.819342,-0.37178 0.830001,0.004 1.085335,0.14821 1.434434,0.81091 0.372484,0.70708 0.0088,1.68317 -1.506106,4.04455 -1.26938,1.97837 -1.511666,2.64236 -0.964192,2.64236 0.393392,0 2.778207,-2.5628 3.39517,-3.64858 0.286011,-0.50334 0.61984,-0.83086 0.808593,-0.79332 0.724764,0.14415 -0.0877,1.51296 -2.232897,3.76189 -1.191972,1.2496 -1.978736,1.7516 -2.745229,1.7516 -0.67264,0 -1.451388,-0.5747 -1.451388,-1.07109 0,-0.71497 -0.373355,-0.66983 -1.734072,0.20964 -0.733055,0.4738 -1.537528,0.86145 -1.787704,0.86145 -0.543959,0 -1.406204,-0.56411 -1.410805,-0.923 -0.002,-0.14065 -0.09426,-0.39972 -0.205559,-0.5757 -0.167512,-0.26495 -0.341895,-0.18457 -1.014721,0.46776 -0.446847,0.43324 -1.079541,0.85336 -1.405979,0.9336 -0.908799,0.22339 -1.812008,-0.25289 -2.092754,-1.10355 -0.132136,-0.40038 -0.287725,-0.72796 -0.345741,-0.72796 -0.05805,0 -0.510836,0.27886 -1.006215,0.6197 -0.495399,0.34084 -1.252446,0.76667 -1.68233,0.94629 -0.686637,0.2869 -1.244742,0.8886 -1.244742,1.342 0,0.0825 0.679385,0.10143 1.509738,0.042 1.042109,-0.0746 1.589789,-0.215 1.768126,-0.45342 0.326703,-0.43677 0.915886,-0.12248 0.721251,0.38475 -0.202252,0.52706 -1.541238,1.02694 -3.440208,1.28435 l -1.691423,0.22928 -0.449295,1.28517 c -0.610433,1.74607 -0.930049,1.9455 -1.897883,1.1842 z m -9.437596,-6.71881 c 0.679003,-0.73664 3.058689,-4.41905 3.058689,-4.73313 0,-0.0406 -0.276791,-0.12915 -0.615093,-0.19681 -0.376781,-0.0754 -0.659641,-0.29334 -0.73005,-0.56259 -0.165574,-0.63315 -0.512666,-0.54541 -1.348579,0.34092 -1.730637,1.835 -2.827865,5.28276 -1.860521,5.84618 0.550342,0.32055 0.566963,0.31283 1.495554,-0.69457 z M 61.990078,181.481 c 0.980441,-1.20823 2.324508,-3.49383 2.324508,-3.95284 0,-0.12859 -0.231989,-0.29203 -0.515544,-0.3632 -0.283555,-0.0712 -0.56385,-0.31412 -0.622885,-0.53988 -0.156274,-0.59759 -0.544106,-0.50572 -1.300908,0.3082 -1.218979,1.31094 -2.128042,3.07663 -2.232496,4.33615 -0.180011,2.17072 0.693656,2.24947 2.347325,0.21157 z m 58.787372,6.42362 c -0.28934,-0.28933 -0.52607,-0.71399 -0.52607,-0.94369 0,-0.54157 1.34902,-4.41412 2.12763,-6.10767 1.06268,-2.31145 2.58736,-6.07838 2.58736,-6.39246 0,-0.83008 1.6097,-1.12487 2.54918,-0.46682 0.43151,0.30223 0.48383,0.47397 0.37551,1.23231 -0.15369,1.07583 -1.27176,3.92903 -2.44491,6.23908 -1.24572,2.45295 -2.38675,5.08773 -2.54417,5.87487 -0.23057,1.15285 -1.26206,1.42686 -2.12453,0.56438 z m -33.086728,-4.5393 c -0.244303,-0.31058 -0.444195,-0.69869 -0.444195,-0.86246 0,-0.16377 0.64163,-1.52507 1.42586,-3.02511 0.78422,-1.50005 1.486832,-3.01669 1.561372,-3.37031 0.114771,-0.5446 0.249099,-0.65384 0.878024,-0.71411 0.616405,-0.059 0.838732,0.0442 1.309082,0.60752 l 0.566591,0.67867 0.86476,-0.57228 c 1.226692,-0.81178 2.421581,-0.93829 3.038221,-0.32166 0.801085,0.80109 0.534024,2.30978 -0.835081,4.71777 -1.135248,1.99667 -1.201536,2.55432 -0.268412,2.25816 0.660825,-0.20973 2.140385,-2.09266 2.91924,-3.71509 0.90828,-1.89205 1.601866,-2.6808 2.946706,-3.35095 1.66503,-0.82973 3.61257,-0.65678 3.93183,0.34913 0.17009,0.53589 0.58524,0.38157 0.73856,-0.27452 0.1664,-0.71211 1.28886,-0.8359 1.91371,-0.21107 0.79303,0.79304 0.49692,1.89181 -1.35104,5.01322 -1.29735,2.19137 -1.30192,2.77881 -0.0151,1.93561 0.55234,-0.3619 2.05214,-2.22861 2.77476,-3.45354 0.39474,-0.66912 0.81998,-0.88449 1.04084,-0.52714 0.12892,0.20862 -0.95078,1.97222 -1.97479,3.22567 -1.23755,1.51482 -3.42377,2.55427 -4.23415,2.01316 -0.1297,-0.0866 -0.35219,-0.37838 -0.49442,-0.64841 l -0.25863,-0.49095 -1.13904,0.6517 c -0.62646,0.35842 -1.44457,0.65169 -1.81801,0.65169 -0.887745,0 -2.308387,-0.73383 -2.482467,-1.28231 -0.182322,-0.57446 -0.432086,-0.54567 -1.36335,0.15714 -1.709512,1.29015 -2.452679,1.4334 -3.216734,0.6201 -0.925342,-0.98498 -0.838811,-1.74887 0.485404,-4.28532 0.66014,-1.26447 1.200263,-2.39166 1.200263,-2.50487 0,-0.52248 -0.93281,-0.10544 -2.056282,0.91932 -1.275145,1.16311 -3.631975,4.50542 -3.87336,5.49299 -0.253563,1.0374 -1.086716,1.18719 -1.770221,0.31825 z m 14.862648,-1.21346 c 0.48077,-0.50648 1.27931,-1.63968 1.77454,-2.51822 1.23222,-2.18594 1.28211,-2.34745 0.72528,-2.34745 -0.27858,0 -0.55118,-0.20858 -0.70027,-0.5358 -0.13428,-0.29468 -0.3658,-0.5358 -0.5145,-0.5358 -0.75843,0 -3.30421,4.11355 -3.30421,5.33904 0,0.62588 0.53281,1.51912 0.90615,1.51912 0.13139,0 0.63226,-0.4144 1.11301,-0.92089 z m 26.53326,1.34862 c -1.20089,-0.73219 -1.4156,-1.9786 -0.67967,-3.94556 0.88632,-2.36889 3.42915,-4.40504 5.50715,-4.40981 2.77979,-0.007 1.98818,2.90854 -1.24144,4.57132 -0.87905,0.45258 -1.71882,0.92249 -1.86616,1.04425 -0.58413,0.4827 -0.12641,2.31207 0.57851,2.31207 0.54809,0 1.91005,-0.79849 2.8305,-1.65947 1.14852,-1.0743 2.79914,-3.31067 3.26307,-4.42099 0.26602,-0.63667 0.24871,-0.74244 -0.21678,-1.32419 -0.27823,-0.34774 -0.50634,-0.84924 -0.50693,-1.11446 -6.4e-4,-0.26521 -0.0734,-0.49025 -0.1618,-0.50007 -0.38612,-0.043 -1.10553,-0.1586 -2.30391,-0.37051 -9.69715,-1.71475 -12.12076,-1.98722 -13.71238,-1.54159 -1.82863,0.51198 -2.46021,2.1923 -1.12909,3.00388 0.38309,0.23359 0.96175,0.42506 1.2859,0.42549 0.79639,8.1e-4 0.74283,0.24092 -0.25511,1.1425 -1.22862,1.10999 -2.91769,1.28092 -4.22074,0.42713 -1.59367,-1.04421 -0.77171,-3.79873 1.5542,-5.20838 2.61436,-1.58446 4.29615,-1.62788 12.72666,-0.3286 0.29469,0.0454 1.25912,0.19505 2.14318,0.3325 3.0209,0.46973 5.88135,-0.0401 6.1579,-1.09768 0.059,-0.22565 0.2455,-0.41028 0.41441,-0.41028 0.4377,0 1.63152,0.64673 1.93998,1.05094 0.62329,0.81675 0.0926,1.96553 -1.14738,2.48361 -0.63583,0.26567 -0.74004,0.40435 -0.6822,0.90775 0.0746,0.64924 0.14866,0.66177 2.16313,0.36599 0.83766,-0.123 1.10354,-0.0776 1.46592,0.25037 0.78032,0.70618 0.34216,2.12171 -1.65717,5.35372 -1.02717,1.66046 -1.12814,2.01802 -0.56982,2.01802 0.72589,0 2.78268,-2.48648 3.77318,-4.56144 l 0.94289,-1.97524 -0.50669,-0.60581 c -0.61951,-0.74068 -0.64822,-1.503 -0.0781,-2.07315 0.84637,-0.84637 1.90147,-0.3586 2.12403,0.98194 0.15363,0.92544 0.0718,0.90337 2.27779,0.61407 0.8713,-0.11427 1.13815,-0.0714 1.38142,0.22167 0.66168,0.79727 0.0666,2.61511 -1.82304,5.5691 -1.22655,1.9174 -0.85867,2.45983 0.69529,1.02517 0.9375,-0.86553 2.30068,-2.76817 2.53764,-3.5419 0.27266,-0.89031 1.58538,-2.25567 2.70524,-2.81372 1.67196,-0.83317 3.61928,-0.66238 3.93916,0.34548 0.17009,0.53589 0.58524,0.38157 0.73856,-0.27452 0.1664,-0.71211 1.28886,-0.8359 1.91371,-0.21107 0.79448,0.79448 0.5745,1.63527 -1.25814,4.80855 -1.11306,1.92734 -1.29628,2.49087 -0.80986,2.49087 0.47409,0 3.32838,-3.22785 3.64813,-4.12561 0.13814,-0.38783 0.68121,-0.51012 0.87475,-0.19697 0.0961,0.15544 -1.21274,2.31944 -1.5774,2.60804 -0.0745,0.0589 -0.35648,0.42363 -0.62667,0.81044 -0.59468,0.85127 -2.47326,1.9709 -3.31154,1.97367 -0.40483,0.002 -0.79106,-0.2058 -1.15317,-0.61846 l -0.54445,-0.62048 -0.97839,0.62048 c -1.18874,0.75388 -2.35277,0.81379 -3.3874,0.17436 -0.397,-0.24536 -0.72183,-0.51626 -0.72183,-0.60199 0,-0.0858 -0.12805,-0.33101 -0.28457,-0.54507 -0.2685,-0.36718 -0.33901,-0.34764 -1.24733,0.3457 -1.96155,1.49728 -3.14043,1.58656 -3.76117,0.28485 -0.42966,-0.90102 -0.24419,-1.68213 1.03237,-4.34765 0.46728,-0.97571 0.79165,-1.86781 0.72081,-1.98243 -0.15077,-0.24394 -0.96464,-0.2717 -1.3007,-0.0444 -0.12801,0.0866 -0.60207,0.83257 -1.05346,1.65769 -1.71913,3.14254 -4.25789,5.6794 -5.68368,5.6794 -0.32131,0 -0.77609,-0.22616 -1.05782,-0.52606 -0.741,-0.78874 -0.53121,-2.18093 0.7011,-4.65268 1.04038,-2.08674 1.03243,-2.38544 -0.0604,-2.27073 -0.33577,0.0352 -0.70256,0.32941 -1.00456,0.80564 -3.43977,5.42405 -6.95869,7.7367 -9.45568,6.21429 z m 26.16674,-0.86407 c 0.30508,-0.23997 0.83677,-0.85426 1.1815,-1.36507 0.70121,-1.039 2.17931,-3.63673 2.17931,-3.83011 0,-0.0688 -0.217,-0.15606 -0.48222,-0.19373 -0.26522,-0.0377 -0.57741,-0.28548 -0.69377,-0.55069 -0.11636,-0.26522 -0.32213,-0.48222 -0.45728,-0.48222 -0.81676,0 -3.29603,4.09359 -3.29603,5.44217 0,0.58414 0.50615,1.41599 0.86157,1.41599 0.0837,0 0.40183,-0.19635 0.70692,-0.43634 z m -22.4869,-3.76515 c 1.00705,-0.63885 1.54607,-1.2838 1.74914,-2.09287 0.11762,-0.46865 0.0688,-0.5638 -0.28886,-0.5638 -0.53342,0 -2.61654,2.23189 -2.61654,2.80341 0,0.53383 0.10435,0.52058 1.15626,-0.14674 z m -51.470523,-4.47778 c -0.915142,-0.39769 -1.051154,-0.82164 -0.559944,-1.74526 0.656694,-1.23476 1.397326,-1.33238 2.320709,-0.30587 0.413968,0.46018 0.413988,0.47234 0.002,1.25762 -0.39162,0.74656 -0.710492,1.11443 -0.955842,1.10274 -0.05893,-0.002 -0.422073,-0.14197 -0.806969,-0.30923 z m 43.268973,-5.1437 c -1.04003,-0.32438 -2.10192,-1.21656 -2.4239,-2.0365 -0.61702,-1.57135 -0.85401,-7.86937 -0.39847,-10.58967 0.44473,-2.65574 2.0218,-3.87713 4.82353,-3.73565 1.3792,0.0697 1.68934,0.1643 2.40301,0.73332 1.65519,1.31973 2.11426,3.38136 1.92894,8.6627 -0.13727,3.91211 -0.3234,4.66731 -1.45228,5.89198 -1.22524,1.32923 -2.88859,1.69517 -4.88083,1.07382 z m 1.98807,-2.92331 c 0.82477,-0.3758 0.98519,-1.23227 0.98519,-5.2601 0,-4.30215 -0.21026,-5.2119 -1.20451,-5.2119 -0.32089,0 -0.75981,0.15961 -0.97537,0.3547 -0.35566,0.32187 -0.39193,0.76542 -0.39193,4.79323 0,4.16583 0.0273,4.47323 0.44419,5.00323 0.5142,0.6537 0.4509,0.63592 1.14243,0.32084 z m 14.32935,3.03571 c -0.98992,-0.23508 -2.13199,-1.17605 -2.64292,-2.17756 -0.59637,-1.16896 -0.9166,-4.21438 -0.77494,-7.36967 0.1887,-4.20316 0.75699,-5.63465 2.58897,-6.5215 1.80844,-0.87545 4.59451,-0.40522 5.6654,0.9562 0.56766,0.72165 1.10788,2.4637 1.10788,3.57257 v 0.81838 h -1.49269 c -1.62901,0 -1.9364,-0.22114 -1.9364,-1.39306 0,-0.89945 -0.37307,-1.39307 -1.05287,-1.39307 -1.13275,0 -1.19745,0.28515 -1.19745,5.27737 0,4.46489 0.0111,4.57998 0.48674,5.05585 0.45619,0.45639 0.52343,0.4664 1.07158,0.15959 0.53391,-0.29884 0.59037,-0.45258 0.64819,-1.76505 0.0734,-1.66578 0.1565,-1.72403 2.30308,-1.61374 l 1.27698,0.0656 -0.0726,1.39306 c -0.19652,3.76918 -2.58531,5.74091 -5.9789,4.93502 z m 20.22975,-0.10403 c -1.01328,-0.36128 -1.71129,-0.99721 -2.21425,-2.01731 -0.33784,-0.68523 -0.39267,-1.57382 -0.46118,-7.47508 l -0.0777,-6.69741 h 1.73501 1.735 v 6.29862 c 0,5.76154 0.0332,6.3395 0.38836,6.7782 0.47959,0.59228 1.15255,0.44092 1.50798,-0.33916 0.16777,-0.36821 0.24684,-2.49522 0.24684,-6.63971 v -6.09795 h 1.73929 1.7393 l -0.0894,6.48309 c -0.0826,5.99292 -0.12286,6.55601 -0.5327,7.44752 -0.24383,0.53043 -0.7211,1.22066 -1.06059,1.53383 -1.07037,0.98745 -3.05415,1.2965 -4.65599,0.72536 z M 43.034522,169.00803 c -0.0834,-0.0834 -0.151664,-3.70397 -0.151664,-8.04567 v -7.89401 h 3.750553 3.750554 v 1.59961 1.59963 l -2.089593,0.0613 -2.089592,0.0613 v 1.2859 1.28591 l 1.982437,0.0617 1.982437,0.0617 v 1.59129 1.5913 l -1.982437,0.0617 -1.982437,0.0617 -0.107165,3.32191 -0.107155,3.32192 -1.402142,0.0623 c -0.771172,0.0343 -1.470388,-0.006 -1.553796,-0.0893 z m 7.520468,0.0194 c -0.06314,-0.0631 0.0184,-0.71409 0.18103,-1.44664 0.162666,-0.73255 0.3856,-1.83549 0.495408,-2.45096 0.109818,-0.61549 0.455383,-2.44789 0.767942,-4.07203 0.312548,-1.62414 0.78005,-4.06207 1.038898,-5.41762 l 0.470605,-2.46465 1.956859,-0.0614 c 2.275291,-0.0714 1.993527,-0.4118 2.62301,3.169 0.238302,1.35555 0.581303,3.18796 0.762225,4.07202 0.965386,4.7173 1.606165,8.3989 1.493537,8.58112 -0.181577,0.29379 -2.829597,0.25957 -3.014101,-0.039 -0.0832,-0.13467 -0.209465,-0.78566 -0.28054,-1.44664 l -0.129219,-1.2018 -1.312009,-0.0631 c -1.460472,-0.0702 -1.572071,0.0486 -1.578346,1.68119 -0.002,0.41845 -0.118666,0.87656 -0.260111,1.01801 -0.252828,0.25283 -2.983816,0.37382 -3.215188,0.14244 z m 5.552617,-5.84272 c 0.200802,-0.12764 0.189232,-0.68938 -0.05188,-2.51495 -0.170692,-1.29284 -0.311148,-2.48298 -0.312127,-2.64476 -0.002,-0.21984 -0.07351,-0.23461 -0.285709,-0.0585 -0.168412,0.13977 -0.394987,1.20818 -0.55687,2.62596 -0.227575,1.99312 -0.224902,2.42075 0.01605,2.57345 0.358613,0.22725 0.850253,0.23503 1.190464,0.0188 z m 5.522154,5.69797 c -0.05873,-0.1531 -0.08144,-3.74985 -0.05051,-7.99276 l 0.05638,-7.71439 2.285325,-0.0607 2.285334,-0.0607 0.117501,0.59645 c 0.06461,0.32803 0.273561,1.46441 0.464301,2.52529 0.19074,1.06086 0.445252,2.36284 0.565583,2.89327 0.120321,0.53044 0.267012,1.37431 0.325958,1.87528 0.05893,0.50097 0.192091,0.91085 0.29585,0.91085 0.225548,0 0.234514,-0.0407 0.966267,-4.3935 0.317061,-1.88599 0.657028,-3.64608 0.755481,-3.9113 0.170105,-0.45823 0.291278,-0.4822 2.437242,-0.4822 h 2.258249 l -0.05619,7.9833 -0.05619,7.98332 h -1.500224 -1.500213 l 0.06402,-4.07202 c 0.03514,-2.23962 -0.02418,-4.36136 -0.13193,-4.71499 l -0.195908,-0.64295 -0.154836,0.85727 c -0.08516,0.4715 -0.284279,1.43593 -0.442491,2.14318 -0.158213,0.70724 -0.403475,1.961 -0.545027,2.78611 -0.141552,0.82513 -0.365279,1.98244 -0.497161,2.57182 l -0.23979,1.07158 -1.124666,0.0647 c -1.386881,0.0799 -1.318821,0.21819 -2.087947,-4.24395 -0.314918,-1.82704 -0.697797,-3.80412 -0.850841,-4.39349 l -0.27825,-1.07158 -0.147543,1.17873 c -0.157507,1.25843 -0.08262,7.60648 0.09603,8.14406 0.08722,0.26251 -0.1787,0.33303 -1.450047,0.3845 -1.126173,0.0456 -1.586451,-0.0139 -1.663712,-0.21535 z m 14.900902,-7.77742 v -8.05567 l 1.553806,0.0629 1.553796,0.0629 v 7.92974 7.92973 l -1.553796,0.0629 -1.553806,0.0629 z m 5.243289,7.77317 c -0.05785,-0.15077 -0.07988,-3.7456 -0.04885,-7.98851 l 0.05638,-7.71439 h 1.607369 1.607388 l 0.05677,6.26078 0.05677,6.26077 1.979197,0.0616 1.979217,0.0616 v 1.60737 1.60739 l -3.594544,0.0588 c -2.764885,0.0452 -3.618828,-0.005 -3.699741,-0.21535 z m 8.584983,0.006 c -0.05286,-0.15253 -0.07557,-3.74928 -0.05051,-7.99275 l 0.04571,-7.71542 h 1.607369 1.607388 v 7.92974 7.92974 l -1.556899,0.063 c -1.127191,0.0456 -1.583445,-0.0135 -1.653062,-0.21432 z m 4.526003,0.0929 c -0.103191,-0.16698 0.244557,-2.09635 1.650478,-9.15726 0.422464,-2.12175 0.878043,-4.50869 1.012391,-5.30436 l 0.244263,-1.44664 h 1.996993 1.996987 l 0.11592,0.58938 c 0.0637,0.32415 0.31278,1.65024 0.5534,2.94686 0.37316,2.01084 1.3076,6.93807 1.64408,8.66913 0.0561,0.2888 0.24181,1.18936 0.4126,2.00127 0.17079,0.81189 0.25615,1.56415 0.1897,1.67166 -0.0665,0.10753 -0.79325,0.1955 -1.61512,0.1955 -1.6801,0 -1.66135,0.0176 -1.87953,-1.76995 l -0.13711,-1.12333 -1.219406,-0.0639 -1.2194,-0.0639 -0.226037,0.814 c -0.124324,0.4477 -0.226585,1.0689 -0.227241,1.38044 -6.46e-4,0.31796 -0.149902,0.62351 -0.340201,0.69653 -0.490319,0.18816 -2.831947,0.16005 -2.952767,-0.0355 z m 5.574082,-5.78505 c 0.31798,-0.20327 -0.34072,-5.44786 -0.670545,-5.33889 -0.120291,0.0397 -0.357869,1.20463 -0.527965,2.58863 -0.269469,2.19261 -0.269469,2.54155 0,2.71205 0.373404,0.23625 0.86425,0.2519 1.19851,0.0383 z m 10.7196,5.8077 c -0.0786,-0.0786 -0.14287,-3.70948 -0.14287,-8.06868 v -7.92583 l 2.98805,0.11829 c 3.59176,0.14219 4.41988,0.47194 5.20956,2.07436 0.4458,0.90462 0.48741,1.32077 0.55079,5.50783 0.0444,2.92893 -0.0176,4.84952 -0.17549,5.43563 -0.3316,1.23147 -1.58767,2.54093 -2.67919,2.79305 -0.9855,0.22763 -5.53685,0.27936 -5.75085,0.0654 z m 4.36056,-2.96615 c 0.92813,-0.47995 1.11664,-1.50649 1.03307,-5.62564 -0.0695,-3.42554 -0.0853,-3.53119 -0.59055,-3.93997 -0.29327,-0.2373 -0.7595,-0.39209 -1.07159,-0.3558 l -0.55245,0.0642 -0.0576,4.9141 c -0.0444,3.78834 0.005,4.95365 0.21431,5.08676 0.35192,0.22335 0.30142,0.23043 1.0249,-0.1437 z m 33.31602,2.84519 c -0.0579,-0.1507 -0.0798,-3.74548 -0.0487,-7.9884 l 0.0564,-7.71438 3.80412,-0.0585 3.80414,-0.0584 v 1.60455 1.60457 l -2.08795,0.0613 -2.08793,0.0613 -0.11202,0.64295 c -0.0617,0.35362 -0.0762,0.9529 -0.0327,1.33174 l 0.0793,0.68879 1.95988,0.0613 1.95991,0.0613 0.0627,1.54563 0.0627,1.54564 -1.99166,0.0618 -1.99165,0.0618 -0.0625,1.65309 -0.0624,1.65309 2.09847,0.0615 2.09846,0.0615 v 1.60738 1.60739 l -3.70175,0.0586 c -2.85097,0.0452 -3.72592,-0.004 -3.80689,-0.21535 z m -71.681585,-16.6877 c 0,-0.12914 0.199461,-0.51491 0.443235,-0.85727 0.396104,-0.55627 0.567012,-0.62246 1.607379,-0.62246 1.245554,0 1.505617,0.28224 0.628357,0.68196 -0.294685,0.13426 -0.535787,0.3096 -0.535787,0.38963 0,0.2299 -1.039123,0.64295 -1.61747,0.64295 -0.289135,0 -0.525714,-0.10566 -0.525714,-0.23481 z m 74.155815,-0.46172 c 8.1e-4,-0.14735 0.38444,-0.87066 0.85182,-1.60738 l 0.84978,-1.33948 h 1.04132 c 0.57272,0 1.0999,0.0585 1.17151,0.13021 0.18571,0.1857 -1.28897,1.73455 -2.34771,2.46579 -0.94865,0.65521 -1.57009,0.79438 -1.56672,0.35086 z m -57.061318,-1.78213 c -0.777838,-0.42205 -1.173882,-1.24036 -1.348207,-2.78573 -0.208467,-1.84801 0.185366,-3.69369 0.951673,-4.46 0.537098,-0.5371 0.776702,-0.61818 1.799821,-0.60899 2.136216,0.0192 2.710402,0.84432 2.742225,3.94065 0.0233,2.27123 -0.179982,3.09197 -0.920379,3.71498 -0.744439,0.62639 -2.26466,0.72024 -3.225133,0.19909 z m 2.217803,-2.02199 c 0.236305,-0.85637 0.211286,-2.87706 -0.04473,-3.61141 -0.17173,-0.49266 -0.368128,-0.67494 -0.727182,-0.67494 -0.270546,0 -0.55044,0.15254 -0.621984,0.339 -0.182341,0.47519 -0.163068,4.27156 0.02261,4.45726 0.346378,0.34638 1.225116,0.0196 1.37123,-0.50991 z m 7.341925,1.59211 c -0.48756,-0.51697 -0.72183,-0.97309 -0.72183,-1.40539 0,-0.62041 0.0279,-0.63799 0.91085,-0.57411 0.82015,0.0594 0.91771,0.12587 0.97989,0.66801 0.0491,0.42892 0.17247,0.58226 0.42863,0.53309 0.31474,-0.0604 0.36698,-0.47784 0.41882,-3.34669 l 0.0592,-3.27768 0.9052,0.0656 0.9052,0.0656 0.0598,3.10189 c 0.0804,4.16945 -0.2732,4.93501 -2.2789,4.93501 -0.80598,0 -1.05121,-0.11261 -1.66684,-0.76537 z m 29.55357,0.24437 c -1.47792,-1.24358 -1.50851,-5.69631 -0.0487,-7.09483 0.5221,-0.50021 0.78618,-0.58325 1.82518,-0.57391 1.97351,0.0177 2.58857,0.87963 2.78553,3.9034 0.0346,0.53043 -0.0174,1.25375 -0.11547,1.60738 -0.0981,0.35362 -0.23778,0.91116 -0.31047,1.23898 -0.30428,1.37226 -2.9094,1.95111 -4.13601,0.91898 z m 2.56848,-2.37228 c 0.18325,-1.20001 0.0121,-3.07437 -0.3179,-3.48266 -0.35523,-0.43943 -0.93558,-0.30513 -1.20126,0.27798 -0.31203,0.68483 -0.32571,3.41047 -0.02,3.98172 0.15892,0.29695 0.40373,0.40712 0.80212,0.36097 0.51002,-0.059 0.59148,-0.18486 0.73702,-1.13801 z m -63.605753,2.41562 c -0.06079,-0.15851 -0.08408,-1.92418 -0.05159,-3.92371 l 0.05893,-3.63552 0.964427,-0.0692 c 3.129215,-0.22451 4.615891,1.09315 3.946951,3.49827 -0.165456,0.59491 -1.094605,1.23563 -2.004618,1.38237 l -0.763595,0.12311 -0.107155,1.39042 -0.107156,1.39043 -0.912812,0.066 c -0.616209,0.0445 -0.948736,-0.0276 -1.023393,-0.22219 z m 3.026817,-4.77263 c 0.183115,-0.72959 -0.02594,-1.17922 -0.5481,-1.17922 -0.350528,0 -0.435356,0.13919 -0.435356,0.71439 0,0.39291 0.06431,0.77868 0.142874,0.85726 0.306979,0.30699 0.712568,0.11764 0.840582,-0.39243 z m 7.374913,1.04423 v -3.99174 l 1.768117,0.0933 c 1.927298,0.1017 2.707024,0.44234 3.128148,1.36662 0.357977,0.78565 0.306988,1.24636 -0.210777,1.9046 l -0.458144,0.58242 0.458144,0.81514 c 0.316757,0.5636 0.458124,1.18641 0.458124,2.01828 v 1.20314 h -1.071573 -1.071592 v -1.25268 c 0,-0.99287 -0.09162,-1.3356 -0.441719,-1.65243 -0.377867,-0.34198 -0.470095,-0.35452 -0.637998,-0.0868 -0.107948,0.17212 -0.160053,0.78864 -0.115779,1.37002 0.110092,1.44601 0.0049,1.62189 -0.970604,1.62189 h -0.834347 z m 2.963319,-1.3244 c 0.0787,-0.55452 -0.292443,-1.11337 -0.739232,-1.11337 -0.202398,0 -0.295233,0.27425 -0.295233,0.87218 0,0.78189 0.04992,0.86508 0.482214,0.80369 0.313919,-0.0445 0.506656,-0.2409 0.552251,-0.5625 z m 27.684054,1.35128 v -3.96487 h 2.14317 2.14317 v 0.85727 0.85727 h -1.15582 c -0.82969,0 -1.19062,0.0907 -1.27918,0.32147 -0.26062,0.67917 0.0899,0.96443 1.18496,0.96443 h 1.0616 l -0.0665,0.80369 c -0.0658,0.79458 -0.0779,0.80442 -1.07367,0.86857 -0.74681,0.0482 -1.0389,0.16495 -1.13003,0.45202 -0.25647,0.80809 0.081,1.09048 1.30285,1.09048 h 1.15581 v 0.85727 0.85726 h -2.14317 -2.14318 z m 10.58751,3.66546 c -0.0631,-0.16469 -0.097,-0.4299 -0.075,-0.58937 0.0219,-0.15949 0.0284,-1.41677 0.0145,-2.79397 l -0.0254,-2.50398 -0.58937,-0.0678 c -0.51276,-0.0589 -0.59808,-0.17321 -0.65632,-0.87864 l -0.067,-0.81084 2.42444,0.0608 2.42443,0.0608 v 0.748 c 0,0.66355 -0.0726,0.76056 -0.64296,0.85912 l -0.64295,0.11111 -0.0594,3.05217 -0.0594,3.05217 h -0.96527 c -0.6287,0 -1.00534,-0.1044 -1.08017,-0.29941 z"
       id="path102340" />
  </g>
</svg>
