<?xml version="1.0" encoding="UTF-8" standalone="no"?>
<!-- Created with Inkscape (http://www.inkscape.org/) -->

<svg
   width="210mm"
   height="297mm"
   viewBox="0 0 210 297"
   version="1.1"
   id="svg2009"
   inkscape:version="1.1.2 (0a00cf5339, 2022-02-04)"
   sodipodi:docname="adesivo_estilo_fit.svg"
   xmlns:inkscape="http://www.inkscape.org/namespaces/inkscape"
   xmlns:sodipodi="http://sodipodi.sourceforge.net/DTD/sodipodi-0.dtd"
   xmlns="http://www.w3.org/2000/svg"
   xmlns:svg="http://www.w3.org/2000/svg">
  <sodipodi:namedview
     id="namedview2011"
     pagecolor="#ffffff"
     bordercolor="#000000"
     borderopacity="0.25"
     inkscape:pageshadow="2"
     inkscape:pageopacity="0.0"
     inkscape:pagecheckerboard="0"
     inkscape:document-units="mm"
     showgrid="false"
     inkscape:zoom="0.75366162"
     inkscape:cx="454.44798"
     inkscape:cy="561.92327"
     inkscape:window-width="1920"
     inkscape:window-height="1018"
     inkscape:window-x="0"
     inkscape:window-y="1105"
     inkscape:window-maximized="1"
     inkscape:current-layer="layer1" />
  <defs
     id="defs2006" />
  <g
     inkscape:label="Layer 1"
     inkscape:groupmode="layer"
     id="layer1">
    <g
       id="g2759"
       transform="matrix(1.8011174,0,0,1.8011174,-333.61257,-223.18098)">
      <circle
         style="fill:#1a1a1a;fill-rule:evenodd;stroke-width:6.90771;stroke-dashoffset:263.639;stop-color:#000000"
         id="circle2729"
         cx="243.52248"
         cy="206.36133"
         r="57.017708" />
      <path
         id="path2731"
         style="fill:#ff2ad4;fill-opacity:1;stroke-width:0.0877538"
         d="m 235.63096,196.01179 c 0,-0.0415 0.24012,0.50256 0.34994,0.47217 1.93603,-0.53578 8.49245,-0.48579 11.67069,0.089 0.17386,0.0314 0.28844,-0.52617 0.28844,-0.58026 0,-0.0494 0.13178,0.12761 -1.19813,0.0713 -0.73145,-0.0308 -2.13145,-0.1385 -3.11112,-0.23895 -2.25823,-0.24048 -4.77937,-0.21053 -6.54638,0.10482 -1.44474,0.25784 -1.45344,0.0819 -1.45344,0.0819 z m 5.59192,0.34223 c 1.51957,0 -3.02027,0.0473 -3.80796,0.14693 -0.79407,0.10044 -1.47972,0.18252 -1.52366,0.18252 -0.0796,0 -0.0913,1.18083 -0.0164,0.68516 0.0535,-0.35359 4.64913,-0.68675 7.85442,-0.39496 0.8298,0.0764 2.4105,0.2308 3.07959,0.286 0.74534,0.25353 0.59798,1.5e-4 0.65366,-0.14473 0.0411,-0.10689 0.24583,-0.47809 -0.56562,-0.49485 -0.53334,-0.011 -1.32198,-0.0614 -1.75264,-0.11185 -0.86338,-0.10121 -5.44106,-0.1542 -3.92149,-0.1542 z"
         sodipodi:nodetypes="scssccssssssccsssss" />
      <path
         style="fill:#cccccc;fill-opacity:1;stroke-width:0.0877538"
         d="m 234.29476,226.42972 c 0.8774,-0.37123 1.12532,-0.49629 2.72736,-1.37584 4.13511,-2.27026 8.19756,-3.4164 11.8594,-3.34589 1.46119,0.0281 1.46119,0.0281 1.66668,-0.31895 0.14394,-0.24307 0.19807,-0.45501 0.18073,-0.70729 -0.0215,-0.31346 -0.005,-0.35013 0.12365,-0.28254 0.41725,0.21834 0.73575,0.93781 0.60794,1.37342 -0.07,0.23866 -0.0545,0.25697 0.33953,0.40019 0.6165,0.22412 1.70797,0.79605 2.01037,1.05343 0.26623,0.22662 0.26623,0.22662 0,0.0667 -0.65353,-0.39248 -1.58544,-0.75076 -2.22937,-0.85713 -0.31494,-0.052 -0.36643,-0.0358 -0.44925,0.14136 -0.50248,1.07495 -2.42795,2.22738 -4.62995,2.77108 -1.25392,0.30961 -1.30232,0.3093 -0.69203,-0.005 1.31487,-0.67621 4.08426,-2.95425 3.91567,-3.22093 -0.0695,-0.10993 -1.44519,-0.10496 -2.17198,0.008 -1.41805,0.22014 -2.56014,0.69968 -4.76006,1.9986 -2.23785,1.32135 -3.559,1.82213 -5.93438,2.24945 -0.88313,0.15886 -2.99705,0.43273 -3.32815,0.43115 -0.0732,-3.2e-4 0.27053,-0.17141 0.76385,-0.38015 z m 0.27385,-4.02114 c -0.50979,-1.50138 -1.56994,-4.4595 -1.9047,-5.31458 -0.85613,-2.18677 -0.87173,-2.94922 -0.0837,-4.09529 0.64491,-0.93801 1.94043,-1.80647 4.43996,-2.97634 1.29769,-0.60739 1.29769,-0.60739 1.29447,-2.60894 -0.004,-2.67803 -0.21102,-3.56795 -1.59067,-6.84884 -0.565,-1.34361 -0.88551,-2.38095 -0.88551,-2.86595 0,-0.30987 -0.0178,-0.30395 1.73061,-0.57586 1.19043,-0.18513 4.73799,-0.14234 6.92254,0.0835 1.02509,0.10598 2.11633,0.21674 2.42499,0.24614 0.56125,0.0535 0.56125,0.0535 0.48813,0.71513 -0.2553,2.31101 0.17943,3.2319 2.38323,5.04827 2.51543,2.07324 3.66889,3.58674 4.234,5.55567 0.66678,2.32324 -0.40806,4.96771 -2.47467,6.08847 -1.48726,0.80657 -3.00933,1.14294 -7.18023,1.5868 -1.94367,0.20684 -3.45783,0.54915 -4.58523,1.03661 -0.45743,0.19779 -0.45743,0.19779 -0.50969,-0.6381 -0.0289,-0.45973 -0.10224,-0.99206 -0.1634,-1.18296 -0.11116,-0.34707 -0.11116,-0.34707 -0.1719,0.0868 -0.0335,0.23861 -0.13156,0.78201 -0.2181,1.20756 -0.19056,0.93687 -0.11491,1.68894 0.31494,3.13162 0.15222,0.51082 0.26436,0.93685 0.2492,0.94673 -0.0152,0.01 -0.28714,0.1285 -0.60442,0.26361 -0.31726,0.13511 -1.30119,0.59143 -2.18647,1.01404 -0.88528,0.42261 -1.6288,0.76838 -1.65232,0.76838 -0.0235,0 -0.14544,-0.3026 -0.27103,-0.67245 z m 2.1113,-2.42952 c -0.20952,-0.65619 -0.46653,-1.42735 -0.57105,-1.71368 -1.11411,-3.05131 -0.79471,-4.69172 1.18144,-6.06751 1.82919,-1.27349 4.6344,-2.39642 8.13319,-3.25573 4.42556,-1.08693 5.23755,-1.50095 5.23594,-2.66973 0,-0.24141 0,-0.24141 -0.16333,0.0189 -0.25788,0.41177 -0.87669,0.90893 -1.46729,1.17883 -0.56185,0.25676 -1.02764,0.3821 -4.1822,1.1254 -1.02509,0.24153 -2.36301,0.59785 -2.97316,0.79183 -0.61016,0.19397 -1.28442,0.40774 -1.49839,0.47504 -0.69563,0.21881 -0.48397,0.0568 0.27787,-0.21274 1.35073,-0.47783 2.48313,-0.78887 4.77056,-1.31034 3.40356,-0.77591 4.28994,-1.15278 4.75573,-2.02201 0.15276,-0.28507 0.18023,-0.64746 0.0298,-0.39526 -0.15457,0.25937 -1.0708,0.80805 -1.81259,1.08543 -0.69059,0.25823 -1.35878,0.42583 -3.88061,0.97332 -5.44767,1.1827 -10.12216,3.49769 -11.25381,5.57334 -0.58822,1.07886 -0.50171,1.8995 0.46008,4.36416 0.40822,1.04605 0.71069,1.64024 0.52707,1.03537 -0.66098,-2.17732 -0.83275,-2.85257 -0.87351,-3.43395 -0.0597,-0.85234 -0.0108,-1.00464 0.26292,-0.81724 0.22558,0.15447 0.9686,0.1821 1.22927,0.0457 0.15856,-0.083 0.17171,-0.0582 0.17233,0.32538 0.003,1.23132 0.56441,3.06733 1.71532,5.59962 0.35643,0.78428 0.3357,0.59437 -0.0757,-0.69414 z m 0.3417,-1.0748 c -1.12957,-3.31911 -0.82289,-4.79717 1.26751,-6.10895 1.68248,-1.0558 4.63045,-2.18021 7.2346,-2.75942 0.5062,-0.1126 1.32933,-0.29554 1.82909,-0.40654 0.4998,-0.11101 0.89306,-0.21712 0.87394,-0.23582 -0.0487,-0.0477 -2.32999,0.21493 -3.28877,0.37855 -3.27696,0.55919 -7.41828,2.4657 -8.34166,3.84017 -0.0957,0.14245 -0.19697,0.24511 -0.22505,0.22814 -0.0282,-0.0169 -0.0557,0.0346 -0.0613,0.11462 -0.006,0.08 -0.0811,0.32118 -0.16761,0.53593 -0.25668,0.63688 -0.22105,2.10245 0.0739,3.04271 0.23313,0.74304 1.31122,3.23083 1.37364,3.16979 0.0181,-0.0178 -0.23755,-0.8274 -0.56829,-1.79918 z m -1.21316,-3.13348 c -0.0245,-0.0597 -0.0447,-0.0108 -0.0447,0.10846 0,0.11931 0.0201,0.16812 0.0447,0.10847 0.0245,-0.0597 0.0245,-0.15728 0,-0.21692 z m -0.0869,-0.51518 c -0.0282,-0.0692 -0.0494,-0.0487 -0.0536,0.0524 -0.004,0.0915 0.0171,0.14272 0.0466,0.11389 0.0295,-0.0288 0.0325,-0.10368 0.007,-0.16631 z m 2.42439,-0.74659 c 0,-0.11766 -0.75932,-0.89535 -0.81809,-0.83789 -0.0305,0.0299 0.13096,0.23995 0.35905,0.46675 0.47981,0.47711 0.45904,0.46033 0.45904,0.37114 z m 3.75067,-7.3955 c 1.20918,-0.25902 2.84966,-0.73674 3.88649,-1.13179 1.06007,-0.4039 2.78568,-1.19963 2.72665,-1.25735 -0.0221,-0.0217 -1.03526,0.28926 -2.25114,0.69111 -5.77861,1.90978 -6.30239,2.11368 -4.362,1.69803 z m 2.41752,-1.22644 c 1.42013,-0.43315 3.75797,-1.46128 3.32275,-1.46128 -0.32742,0 -5.87085,1.97924 -6.0592,2.16341 -0.10331,0.10101 1.19794,-0.23289 2.73645,-0.70213 z m -3.2394,-1.11968 c 0.97722,-0.27993 2.54434,-0.80065 3.37253,-1.12063 0.6287,-0.24292 2.6716,-1.23668 2.6286,-1.27869 -0.0601,-0.0588 -2.48222,0.85164 -3.4166,1.28422 -0.95969,0.4443 -1.15333,0.51328 -0.84151,0.29973 0.54039,-0.37005 0.45857,-2.06252 -0.20542,-4.24882 -0.0421,-0.13856 0.0131,-0.12123 0.32238,0.10107 0.63002,0.45299 1.41876,1.49281 1.56528,2.06362 0.13062,0.50877 0.23628,0.18923 0.19428,-0.58745 -0.10947,-2.02369 -1.48738,-3.39334 -3.42308,-3.40258 -0.7602,-0.004 -0.81071,0.0414 -0.82446,0.73445 -0.009,0.47722 -0.009,0.47722 -0.17201,-0.0292 -0.27063,-0.84297 -0.31826,-0.8691 -1.46314,-0.80259 -0.53693,0.0312 -1.30752,0.1006 -1.71243,0.15424 -0.73614,0.0975 -0.73614,0.0975 -0.67848,0.36584 0.10163,0.47295 0.39474,1.26995 0.88981,2.41958 0.2654,0.61632 0.61703,1.51674 0.78143,2.00094 0.3308,0.97444 0.76134,1.89009 0.86052,1.83015 0.23887,-0.14434 -0.37666,-2.99955 -0.91057,-4.2238 -0.48752,-1.11782 -0.4679,-1.38225 0.0708,-0.95403 0.40705,0.32355 0.48336,0.56658 0.56903,1.81195 0.1392,2.02412 0.55471,3.41008 1.08799,3.62931 0.26311,0.10815 0.26311,0.10815 -0.0812,0.16763 -0.69093,0.11936 -1.27623,0.26512 -1.27623,0.31782 0,0.0872 1.65225,-0.2434 2.66252,-0.53278 z m 0.26452,-0.49344 c 0,-0.17896 -0.0586,-0.69632 -0.12816,-1.14968 -0.17862,-1.16468 -0.22702,-1.54518 -0.17103,-1.34492 0.0268,0.0954 0.13015,0.44686 0.2299,0.78092 0.28747,0.96249 0.43328,1.89393 0.3086,1.97146 -0.1918,0.11926 -0.23755,0.0699 -0.2393,-0.25778 z m -0.87877,-4.93135 c 0.004,-0.10107 0.0252,-0.12164 0.0536,-0.0524 0.0255,0.0626 0.0225,0.13748 -0.007,0.16631 -0.0295,0.0288 -0.0505,-0.0224 -0.0466,-0.11389 z m -0.70948,20.08619 c -0.10907,-0.72022 -0.18536,-1.32046 -0.1695,-1.33387 0.53774,-0.45479 2.72384,-0.90503 5.26513,-1.08439 4.85612,-0.34275 6.68817,-0.85888 8.16854,-2.3013 0.9256,-0.90186 1.62395,-2.28836 1.64729,-3.27048 0.009,-0.37516 0.009,-0.37516 0.096,-0.0281 0.3033,1.20859 -0.25268,2.73349 -1.39454,3.82471 -0.89816,0.85834 -1.94992,1.36882 -3.65825,1.77552 -0.3772,0.0898 -0.3772,0.0898 -0.37854,0.93244 0,0.46346 -0.0305,0.88597 -0.0666,0.93891 -0.0365,0.0539 -0.4951,0.12344 -1.04145,0.15797 -2.45187,0.15501 -5.3145,0.71636 -7.3415,1.4396 -0.39843,0.14215 -0.77026,0.25846 -0.82635,0.25846 -0.0635,0 -0.17674,-0.4937 -0.30028,-1.30949 z m 15.40028,0.42494 c -0.077,-0.11493 -0.20937,-0.60616 -0.2941,-1.09163 -0.15407,-0.88267 -0.15407,-0.88267 0.0989,-1.60076 0.13913,-0.39496 0.35247,-1.00394 0.4741,-1.35331 0.26174,-0.75169 0.40668,-0.84107 1.22031,-0.75248 0.64018,0.0697 1.55515,0.38289 1.64598,0.56339 0.1753,0.34838 0.35023,2.80805 0.21414,3.0111 -0.20954,0.31265 -1.7462,0.20961 -2.26549,-0.15191 -0.45039,-0.31354 -0.61133,-0.17373 -0.61405,0.53354 0,0.31723 -0.14681,0.84128 -0.27133,0.97667 -0.0376,0.0409 -0.13139,-0.0197 -0.20841,-0.1346 z m -27.62408,-1.84565 c -0.38102,-0.26091 -1.66194,-2.1655 -2.04447,-3.0399 -0.43382,-0.9916 -0.44389,-1.06174 -0.21522,-1.50022 0.16061,-0.30799 0.79008,-2.19705 0.97467,-2.92498 0.30891,-1.21826 0.20787,-1.11331 1.02358,-1.06356 0.81072,0.0494 1.51376,0.295 1.59178,0.55596 0.20055,0.67066 0.52838,2.24627 0.64722,3.11066 0.26915,1.95799 0.27207,1.91585 -0.11432,1.65124 -0.25993,-0.17799 -0.53643,-0.79195 -0.65404,-1.45234 -0.061,-0.3423 -0.18049,-0.65716 -0.30846,-0.81269 -0.20891,-0.2539 -0.20891,-0.2539 -0.5483,0.0565 -0.18667,0.17071 -0.50621,0.43532 -0.71012,0.58799 -0.91641,0.6861 -0.84748,2.31275 0.15342,3.62197 0.16833,0.22018 0.39592,0.51912 0.50574,0.66432 0.38082,0.50347 0.17671,0.87249 -0.30149,0.54504 z m 30.52872,-3.1753 c -0.16169,-0.0593 -0.20143,-0.16378 -0.25178,-0.66164 -0.0329,-0.32519 -0.17255,-1.48931 -0.31045,-2.58694 -0.13789,-1.09762 -0.27388,-2.21042 -0.30219,-2.4729 -0.53834,-4.99186 -0.72024,-5.80772 -1.81222,-8.12785 -0.56541,-1.20137 -0.63518,-1.46726 -0.85871,-3.27383 -0.0762,-0.61578 -0.26188,-1.86524 -0.41262,-2.77659 -0.29847,-1.80429 -0.35174,-2.96206 -0.22193,-4.82405 0.0502,-0.71961 0.0446,-1.1576 -0.0164,-1.30152 -0.0867,-0.20414 -0.0932,-0.19647 -0.1099,0.13015 -0.0124,0.246 -0.0292,0.2839 -0.0575,0.13015 -0.0218,-0.11931 -0.0764,-0.25402 -0.12105,-0.29936 -0.0447,-0.0453 -0.0812,-0.16292 -0.0812,-0.26129 0,-0.19774 -0.51922,-1.01478 -0.67603,-1.06376 -0.11738,-0.0367 -0.21012,0.35998 -0.21492,0.91941 -0.003,0.40131 -0.003,0.40131 -0.31128,-0.20607 -0.16932,-0.33406 -0.28787,-0.50977 -0.26339,-0.39046 0.22699,1.10704 0.31686,1.84518 0.40145,3.2972 0.0542,0.9306 0.13488,1.96531 0.17926,2.29937 0.16003,1.20463 0.0338,1.28329 -0.18308,0.11408 -0.16205,-0.87374 -0.27841,-0.91208 -0.21451,-0.0707 0.20321,2.67616 1.16731,6.66269 1.78079,7.36339 0.37757,0.43127 0.44522,0.4421 0.52563,0.0842 0.12921,-0.57512 0.43965,0.62067 0.57373,2.20996 0.0491,0.58213 0.13142,1.54095 0.18291,2.1307 0.10543,1.20752 0.0736,1.40446 -0.0971,0.60067 -0.16648,-0.78389 -0.21102,-0.38738 -0.0528,0.4698 0.48058,2.60304 0.69127,3.852 0.84792,5.02598 0.3258,2.44203 0.36817,2.72128 0.44921,2.9615 0.0787,0.23331 0.0727,0.23862 -0.26989,0.23862 -0.34,0 -0.3504,-0.009 -0.3504,-0.29792 0,-0.36068 -0.36995,-2.3484 -0.66154,-3.55437 -0.32702,-1.35261 -0.71492,-2.38945 -1.51281,-4.04365 -1.18758,-2.46214 -1.30391,-2.87618 -1.46364,-5.20952 -0.0977,-1.4272 -0.21887,-1.97903 -0.88052,-4.01045 -0.99097,-3.04266 -1.32389,-5.06121 -1.03368,-6.26751 0.0688,-0.28594 0.10453,-0.53974 0.0794,-0.56399 -0.0678,-0.0655 -0.46904,0.44562 -0.53036,0.67552 -0.07,0.26234 -0.19472,0.20991 -0.53475,-0.22471 -0.79555,-1.01684 -0.93143,-2.76947 -0.40715,-5.25157 0.1494,-0.70726 0.29096,-1.30483 0.31457,-1.32793 0.0651,-0.0636 2.08044,0.39462 2.57665,0.58584 1.64192,0.63274 2.80202,2.41831 2.81148,4.32737 0,0.3102 -0.0455,1.09941 -0.10456,1.7538 -0.0995,1.10202 -0.0927,1.28764 0.0911,2.51628 0.10918,0.72957 0.31605,2.22455 0.45968,3.32217 0.33976,2.59665 0.34228,2.60668 1.00583,4.05493 1.10634,2.41454 1.19838,2.87297 1.83074,9.11814 0.49624,4.90088 0.49376,4.84409 0.20814,4.7394 z m -29.7169,-5.73074 c -0.24406,-0.0827 -0.53146,-0.1535 -0.63867,-0.15732 -0.50543,-0.018 0.48501,-1.85681 2.41071,-4.47553 1.04136,-1.41612 1.58788,-2.9253 1.54572,-4.26829 -0.009,-0.29896 -0.0228,-0.27824 -0.14206,0.21756 -0.0725,0.30141 -0.14351,0.53568 -0.15792,0.52061 -0.0145,-0.0152 -0.004,-0.65053 0.0221,-1.41214 0.0325,-0.93105 0.0738,-1.31795 0.12566,-1.18088 0.33765,0.89237 0.45445,0.94855 0.72518,0.34881 0.10878,-0.24094 0.22185,-0.41452 0.25127,-0.38573 0.079,0.0772 0.23061,-0.88264 0.34952,-2.21311 0.0914,-1.02345 0.0999,-2.29925 0.0469,-7.07164 -0.0124,-1.10998 0.016,-1.1822 0.81373,-2.06437 0.79106,-0.87488 1.06537,-1.71398 0.68268,-2.08812 -0.21435,-0.20955 -0.16819,-0.22932 0.53528,-0.22932 0.81595,0 0.8133,-0.004 0.67366,1.10675 -0.1369,1.08898 -0.44636,1.97156 -1.02677,2.92799 -1.25016,2.0602 -1.40893,3.46532 -0.57597,5.09729 0.35576,0.69705 0.35576,0.69705 0.17371,1.7449 -0.10013,0.57632 -0.22139,1.73248 -0.26952,2.56925 -0.1975,3.43443 -0.40843,3.93391 -3.45495,8.18198 -0.64447,0.89867 -1.24231,1.9632 -1.42469,2.53688 -0.14743,0.46371 -0.1556,0.46731 -0.66581,0.29443 z m -1.64189,-0.20342 c 0,-0.0517 0.18681,-0.7393 0.51976,-1.91314 0.14886,-0.52495 0.45374,-1.8525 0.67745,-2.95013 0.64712,-3.17499 1.07637,-4.58678 1.85324,-6.09498 0.72353,-1.40467 0.88977,-2.17433 1.08094,-5.00439 0.13116,-1.94209 0.11573,-2.48715 -0.14413,-5.08774 -0.18349,-1.83599 0.17073,-3.13508 1.0704,-3.92577 0.79911,-0.70235 1.35737,-0.88406 3.26338,-1.06222 3.77083,-0.35248 5.06833,-1.32375 6.00664,-4.49641 0.33346,-1.12745 0.32396,-1.17869 -0.33554,-1.81315 -1.12266,-1.08003 -1.60294,-2.80531 -1.29592,-4.65535 0.20492,-1.23475 0.6745,-2.11917 1.65913,-3.12495 0.35389,-0.36147 0.64344,-0.66157 0.64347,-0.66688 0,-0.005 -0.0898,0.006 -0.19965,0.0248 -0.52499,0.0905 -1.13159,-0.70263 -1.13159,-1.47956 0,-2.56574 3.41348,-4.02236 5.27783,-2.25217 0.79757,0.7573 0.93248,2.34095 0.2025,2.37723 -0.061,0.003 0.27768,0.13387 0.75262,0.29073 2.862,0.94527 4.74292,3.35233 4.07161,5.21056 -0.10285,0.28468 -0.187,0.66345 -0.187,0.84172 0,0.42835 -0.1418,1.09581 -0.40246,1.89449 -0.11683,0.35792 -0.29112,1.10791 -0.38729,1.66664 -0.19647,1.14118 -0.32162,1.46261 -0.95586,2.45487 -0.24403,0.38178 -0.6171,1.02114 -0.82906,1.42081 -0.59147,1.11524 -0.95626,1.19271 -2.20659,0.4686 -0.31112,-0.18017 -0.74628,-0.4918 -0.96703,-0.69251 -0.40141,-0.36494 -0.40141,-0.36494 -0.34459,-1.21476 0.14471,-2.16442 -0.54696,-3.66747 -1.68855,-3.66923 -0.35764,-6.6e-4 -0.38216,-0.0189 -0.69264,-0.51859 -0.80987,-1.30342 -1.44941,-1.09662 -1.35847,0.43925 0.0452,0.76209 0.24892,1.1663 0.76687,1.52106 0.21961,0.15041 0.25952,0.20342 0.12408,0.16479 -0.18821,-0.0537 -0.19972,-0.032 -0.19972,0.37647 0,2.78228 -1.22752,4.64556 -3.66093,5.55695 -0.52801,0.19775 -0.25225,0.49594 0.85301,0.92238 1.16943,0.45121 0.9736,0.47256 -0.3829,0.0418 -0.60338,-0.19162 -1.11073,-0.3484 -1.1275,-0.3484 -0.0167,0 -0.0305,0.13528 -0.0305,0.30063 0,0.31731 0.17694,0.48029 0.52143,0.48029 0.0979,0 0.19673,0.0294 0.21948,0.0654 0.0228,0.036 -0.0847,0.0653 -0.23883,0.0651 -0.28019,-3.3e-4 -0.28019,-3.3e-4 -0.30113,1.38794 -0.0432,2.86535 0.31505,3.66503 1.91256,4.26887 0.7238,0.27359 0.72564,0.27283 0.73245,-0.29921 0.006,-0.49892 0.006,-0.49892 0.11764,-0.15184 0.24768,0.76971 0.49768,0.97191 0.49768,0.40257 0,-0.76012 0.10064,-1.15649 0.25822,-1.01707 0.12979,0.11485 0.24755,0.0528 1.14739,-0.6049 0.55152,-0.4031 1.01003,-0.73313 1.01888,-0.73343 0.009,-2.6e-4 -0.29347,0.31836 -0.67191,0.70813 -0.65983,0.67962 -1.22008,1.55637 -1.22008,1.90932 0,0.1369 0.0728,0.15925 0.5103,0.15665 2.15269,-0.0127 3.57399,-0.85201 4.67462,-2.76021 0.32434,-0.56228 0.4094,-0.78981 0.18906,-0.50559 -0.11469,0.14795 -0.13296,0.13778 -0.27382,-0.15243 -0.3456,-0.71207 -1.64346,-1.57864 -2.67912,-1.78884 -0.50228,-0.10194 -0.50228,-0.10194 -0.20767,-0.22305 0.76412,-0.31411 1.39206,-0.41558 2.59691,-0.41964 0.66872,-0.002 1.18791,-0.0298 1.15376,-0.0611 -0.13702,-0.12583 -1.83141,-0.3387 -2.69418,-0.33848 -1.08346,2.6e-4 -1.36022,0.0678 -1.93597,0.47216 -0.43126,0.30291 -0.43126,0.30291 -0.49074,-0.11971 -0.0693,-0.49252 0.043,-1.10568 0.41319,-2.25629 0.17788,-0.55296 0.27707,-1.06709 0.30132,-1.56183 0.0302,-0.61717 0.0215,-0.68173 -0.0529,-0.39561 -0.14866,0.57104 -0.17356,0.47064 -0.17251,-0.69623 0,-1.12076 0,-1.12076 0.23846,-0.81707 0.52435,0.67048 1.55032,1.4651 2.75064,2.13038 0.26734,0.14818 0.2828,0.18417 0.27613,0.64296 -0.009,0.62024 0.16224,0.94245 0.70954,1.33524 0.4621,0.33164 1.57041,0.91863 2.02824,1.07422 0.27959,0.095 0.27959,0.095 0.14991,0.73162 -0.76087,3.73495 -0.60389,5.36264 0.64296,6.66584 0.21555,0.2253 0.39155,0.48368 0.39111,0.57417 0,0.26796 -0.55554,1.73749 -1.06839,2.83267 -0.47739,1.01954 -0.47739,1.01954 -1.31413,1.01954 -0.46022,0 -1.9194,-0.10192 -3.24269,-0.22647 -2.69025,-0.25322 -4.80215,-0.2498 -6.48842,0.0105 -1.77965,0.27473 -1.7187,0.27538 -1.82379,-0.0194 -0.0509,-0.14275 -0.19086,-0.43129 -0.31105,-0.64119 -1.54092,-2.69147 -1.5898,-3.65699 -0.30042,-5.93482 0.88381,-1.56128 1.04364,-2.05991 1.27942,-3.99135 0.12231,-1.00205 0.21954,-1.54904 0.3239,-1.82214 0.0426,-0.11154 -0.0225,-0.13015 -0.45496,-0.13015 -0.24446,0 -0.35499,0.0377 -0.35499,0.12101 0,0.0945 -0.22866,0.12935 -1.04283,0.15908 -1.64994,0.0602 -2.56655,0.54052 -3.13588,1.64324 -0.41332,0.80048 -0.48014,1.59813 -0.29676,3.54309 0.15491,1.64301 0.15473,1.66625 -0.0475,6.42087 -0.0335,0.78743 -0.0679,1.34383 -0.0765,1.23645 -0.0241,-0.30041 -0.16641,-0.2314 -0.23242,0.11262 -0.0325,0.16932 -0.22099,0.68667 -0.41889,1.14968 -1.17,2.73721 -1.58044,3.95238 -2.01345,5.96118 -0.10289,0.47723 -0.3876,1.79096 -0.6327,2.91941 -0.2451,1.12845 -0.44566,2.15341 -0.44566,2.27768 0,0.20576 -0.0319,0.22595 -0.35499,0.22595 -0.19526,0 -0.35499,-0.0176 -0.35499,-0.0392 z m 15.84196,-16.14124 c 1.16799,-0.20781 2.57115,-0.80751 3.06816,-1.3113 0.30437,-0.30851 0.30437,-0.30851 0.0381,-0.24679 -0.14642,0.0339 -0.32722,0.0921 -0.40175,0.12917 -0.17802,0.0886 -1.6229,0.43092 -1.66114,0.39353 -0.0164,-0.0159 0.28146,-0.15156 0.66164,-0.30141 0.94643,-0.37306 1.27972,-0.63661 1.06967,-0.84581 -0.17054,-0.16985 -0.28324,-0.15535 -1.70968,0.22001 -1.76519,0.46449 -3.49315,0.40351 -4.80785,-0.16966 -1.00997,-0.44032 -1.62623,-1.3489 -1.82662,-2.69312 -0.12271,-0.82292 -0.20864,-0.84668 -0.54112,-0.14959 -0.95311,1.99823 -0.96354,2.85941 -0.0465,3.84034 1.04582,1.11874 3.60053,1.58953 6.15711,1.13464 z m 1.52315,-18.227 c 0.53753,-0.30797 0.48175,-0.42285 -0.0809,-0.16674 -0.25627,0.11664 -0.56578,0.21306 -0.68781,0.21426 -0.12203,0.001 -0.2818,0.04 -0.35503,0.0863 -0.33624,0.21246 0.74393,0.0838 1.12378,-0.13381 z m -1.35452,-0.63288 c -1.10902,-0.78847 -1.98216,-2.43176 -1.99004,-3.74527 -0.005,-0.82192 -0.19744,-0.43926 -0.24758,0.4921 -0.0823,1.52925 0.53609,2.58543 1.95998,3.34741 0.48084,0.25731 0.67801,0.19039 0.27764,-0.0942 z m 2.93267,-0.88066 c 0.73323,-0.18334 1.67198,-0.63613 2.17382,-1.0485 0.42473,-0.34903 0.29274,-0.39994 -0.22712,-0.0876 -1.53606,0.92282 -3.42858,1.17001 -4.71112,0.61534 -0.46431,-0.20079 -0.47642,-0.30085 -0.0208,-0.17314 0.43178,0.12107 0.50943,0.10344 0.30176,-0.0685 -0.20857,-0.17267 -0.61743,-0.96001 -0.53857,-1.03712 0.0292,-0.0285 0.12307,0.009 0.20877,0.0822 0.21602,0.18568 0.91742,0.52317 0.97347,0.46838 0.0251,-0.0247 -0.0681,-0.14094 -0.20757,-0.25824 -0.25359,-0.21325 -0.25359,-0.21325 0.16205,-0.19968 0.41564,0.0136 0.41564,0.0136 0.2282,-0.18131 -0.10308,-0.10719 -0.17063,-0.20703 -0.15011,-0.22188 0.0205,-0.0148 0.20636,-0.15438 0.41295,-0.3101 0.21572,-0.1626 0.42047,-0.25601 0.48102,-0.21943 0.0716,0.0433 0.0873,0.0174 0.0487,-0.0807 -0.0312,-0.0794 -0.0181,-0.1444 0.0292,-0.1444 0.0473,0 0.086,-0.0612 0.086,-0.13606 0,-0.11312 0.0442,-0.10531 0.26194,0.0463 0.28831,0.20071 1.19459,0.61037 1.35029,0.61037 0.0541,0 -0.0568,-0.12051 -0.24661,-0.26782 -0.18975,-0.14731 -0.36499,-0.28915 -0.38937,-0.3152 -0.0403,-0.043 0.12163,-0.0233 0.93187,0.11322 0.26627,0.0449 0.26627,0.0449 0.0444,-0.1597 -0.60788,-0.56048 -0.61925,-0.61548 -0.0861,-0.41732 0.267,0.0993 0.55927,0.22192 0.64943,0.27259 0.2608,0.14655 0.26654,0.0378 0.0208,-0.39272 -0.12595,-0.22056 -0.229,-0.41497 -0.229,-0.43201 0,-0.0171 0.19968,-0.0205 0.44374,-0.007 0.50443,0.0266 0.49185,0.0402 0.29938,-0.32363 -0.14438,-0.27297 -0.14438,-0.27297 0.13601,-0.0423 0.22632,0.18619 0.32145,0.21542 0.49319,0.15157 0.16439,-0.0611 0.26573,-0.0384 0.44556,0.0999 0.46914,0.36079 0.29562,0.0853 -0.30095,-0.47775 -1.08923,-1.02807 -2.49165,-1.49493 -3.43392,-1.14312 -0.28851,0.10773 -0.53958,0.13838 -0.84432,0.1031 -0.44365,-0.0514 -0.59309,0.0541 -0.23404,0.16522 0.1855,0.0574 1.13757,0.64521 1.04163,0.64313 -0.0238,-6.6e-4 -0.24286,-0.0604 -0.48692,-0.13308 -0.24406,-0.0727 -0.68338,-0.1664 -0.97628,-0.20826 -0.29287,-0.0419 -0.61237,-0.10594 -0.70998,-0.14235 -0.10737,-0.0401 -0.003,0.11845 0.26516,0.40108 0.49134,0.51868 0.5328,0.44939 -0.3983,0.66533 -0.12202,0.0283 -0.24909,0.0924 -0.28233,0.14246 -0.0332,0.05 -0.0875,-0.0143 -0.12055,-0.14309 -0.12461,-0.48539 -0.28955,-0.0871 -0.22642,0.54683 0.009,0.088 -0.0428,0.0669 -0.15904,-0.0651 -0.21544,-0.24457 -0.27666,-0.24581 -0.27666,-0.006 0,0.1043 -0.0875,0.28075 -0.19455,0.39211 -0.19456,0.20247 -0.19456,0.20247 -0.30344,-0.0378 -0.10238,-0.22596 -0.10928,-0.21056 -0.11606,0.25866 -0.005,0.34999 -0.0403,0.49244 -0.11815,0.47723 -0.33962,-0.0664 0.0428,1.17437 0.53019,1.72003 0.16178,0.18113 1.06068,0.81465 1.16604,0.82178 0.0312,0.002 0.25628,0.058 0.50034,0.12429 0.63843,0.17332 1.50969,0.15813 2.30253,-0.0401 z m -3.44656,-6.9491 c 0.28666,-0.65257 1.23219,-0.9994 2.52771,-0.92718 0.87005,0.0485 0.8951,-0.0108 0.29789,-0.70465 -0.12813,-0.1489 -0.19948,-0.2719 -0.15853,-0.27335 0.16645,-0.006 -0.27405,-0.19196 -0.53364,-0.22542 -1.16879,-0.15061 -1.3663,-0.14181 -1.86958,0.0834 -0.70069,0.31363 -0.58265,0.40122 0.23671,0.17567 0.25621,-0.0705 0.17379,0.086 -0.15476,0.29408 -0.60228,0.3814 -0.92926,1.42567 -0.65031,2.07704 0.1046,0.24426 0.1046,0.24426 0.13646,0.0273 0.0174,-0.11931 0.0931,-0.35645 0.16805,-0.52698 z m 16.59236,42.18209 c -0.17399,-0.18798 -0.15319,-0.30199 0.19113,-1.04744 1.17406,-2.54177 1.88119,-6.22025 1.77268,-9.22118 -0.26312,-7.27685 -4.05367,-13.328 -10.5591,-16.85637 -0.81648,-0.44285 -0.9694,-0.63664 -0.77807,-0.98616 0.20582,-0.37596 0.71602,-0.21602 2.35633,0.73866 1.55803,0.90681 4.0436,2.93859 3.89074,3.18041 -0.0319,0.0505 -0.0155,0.0655 0.0373,0.0337 0.0842,-0.0509 0.94506,0.74401 1.10382,1.01936 0.034,0.059 0.20619,0.26085 0.38259,0.44858 1.65507,1.7612 3.52348,5.71156 4.16383,8.80357 0.63249,3.05406 0.53666,6.73638 -0.25514,9.80252 -0.34415,1.33276 -1.16443,3.52113 -1.52046,4.05643 -0.16299,0.24502 -0.57124,0.25952 -0.78565,0.0279 z m -34.11639,-1.19437 c -0.29223,-0.11391 -1.12176,-2.49108 -1.50973,-4.32647 -0.57171,-2.70464 -0.5585,-6.00178 0.0347,-8.67204 1.4731,-6.63062 5.61072,-11.65086 11.76471,-14.27424 1.3299,-0.56693 1.67768,-0.55204 1.67768,0.0718 0,0.27258 -0.17708,0.3861 -1.24319,0.79694 -0.38172,0.1471 -1.11247,0.51063 -2.08496,1.03724 -2.43093,1.31637 -4.96746,3.72701 -6.54156,6.21694 -3.41895,5.40816 -3.97554,11.95962 -1.54598,18.19805 0.30967,0.79521 0.0769,1.19676 -0.55169,0.95175 z m 16.27179,-22.58644 c -0.14471,-0.0608 -0.14977,-0.0757 -0.0275,-0.0807 0.0825,-0.003 0.17476,0.0329 0.20492,0.0807 0.0631,0.0998 0.06,0.0998 -0.17748,0 z m 0.3141,-8.51968 c -0.23756,-0.24927 -0.2283,-0.3634 0.0409,-0.50425 0.38827,-0.20315 0.18077,-0.86246 -0.23121,-0.73463 -0.18017,0.0559 -0.212,-0.0178 -0.0893,-0.20709 0.21585,-0.33303 0.75426,0.45776 0.83319,1.22372 0.0494,0.47946 -0.20941,0.58338 -0.55354,0.22225 z"
         id="path2733"
         sodipodi:nodetypes="sssssssssssssssssssssssssssssssssssssssssssssssssssssssssssssssssssssssssssssssssssssssssssssssssssssssssssssssssssssssssssssssssssssscsssscsssssssssscsscsssssssssssssscssssssssssssssssssssssssssssssssssssssssssssssssssssssssssscssssssssssssscsssssssssssssssssssssssssssssscsscsssssssssscsssssssssssssssssssscsssssssscssssssssssssssscssssssssssssssssssssssssssssssssssssssscssssssssssssssssssssssssssssssssssscsssssssscssscssssssssssscsssssssssssssssssssssssssssssssssssssssssssssssssss" />
      <path
         d="m 214.49807,232.14344 h 3.69794 l -0.62865,2.89228 h -3.69794 z m 4.4893,-3.61536 -0.62865,2.89229 h -4.43014 l -0.94667,4.33843 h 4.43013 l -0.62865,2.89228 h -7.39588 l 1.88595,-8.67686 -1.16115,-1.44614 z"
         id="path2735"
         style="font-style:italic;font-size:45.1556px;line-height:20.5;font-family:'Maximum Voltage';-inkscape-font-specification:'Maximum Voltage Italic';text-align:center;letter-spacing:-0.185208px;text-anchor:middle;fill:#cccccc;fill-opacity:1;stroke-width:0.175508;stroke-dashoffset:263.639" />
      <path
         d="m 221.93537,235.03572 q -3.69794,0 -2.98054,-3.28274 0.70261,-3.2249 4.40055,-3.2249 h 3.70534 l -0.62126,2.89229 h -3.71273 q -0.73959,0 -0.81355,0.33261 -0.0888,0.39046 0.65084,0.39046 h 1.47918 q 3.69794,0 3.00272,3.2249 -0.7174,3.28274 -4.41534,3.28274 h -4.56326 l 0.62865,-2.89228 h 4.56326 q 0.73959,0 0.82834,-0.39046 0.0666,-0.33262 -0.67303,-0.33262 z"
         id="path2737"
         style="font-style:italic;font-size:45.1556px;line-height:20.5;font-family:'Maximum Voltage';-inkscape-font-specification:'Maximum Voltage Italic';text-align:center;letter-spacing:-0.185208px;text-anchor:middle;fill:#cccccc;fill-opacity:1;stroke-width:0.175508;stroke-dashoffset:263.639" />
      <path
         d="m 228.44819,228.52808 h 7.42546 l -0.62865,2.89229 h -2.21876 l -2.20398,10.123 h -2.95835 l 2.20397,-10.123 h -2.21876 z"
         id="path2739"
         style="font-style:italic;font-size:45.1556px;line-height:20.5;font-family:'Maximum Voltage';-inkscape-font-specification:'Maximum Voltage Italic';text-align:center;letter-spacing:-0.185208px;text-anchor:middle;fill:#cccccc;fill-opacity:1;stroke-width:0.175508;stroke-dashoffset:263.639" />
      <path
         d="m 239.51686,228.52808 -2.20397,10.123 h -2.95835 l 2.19658,-10.123 z"
         id="path2741"
         style="font-style:italic;font-size:45.1556px;line-height:20.5;font-family:'Maximum Voltage';-inkscape-font-specification:'Maximum Voltage Italic';text-align:center;letter-spacing:-0.185208px;text-anchor:middle;fill:#cccccc;fill-opacity:1;stroke-width:0.175508;stroke-dashoffset:263.639" />
      <path
         d="m 243.89227,228.52808 -1.57532,7.23072 h 2.95096 l -0.62865,2.89228 h -5.90932 l 1.87856,-8.67686 -1.16116,-1.44614 z"
         id="path2743"
         style="font-style:italic;font-size:45.1556px;line-height:20.5;font-family:'Maximum Voltage';-inkscape-font-specification:'Maximum Voltage Italic';text-align:center;letter-spacing:-0.185208px;text-anchor:middle;fill:#cccccc;fill-opacity:1;stroke-width:0.175508;stroke-dashoffset:263.639" />
      <path
         d="m 249.75425,238.65108 q -2.14481,0 -3.34294,-1.48229 -1.19074,-1.4823 -0.7322,-3.57921 0.45116,-2.09691 2.29273,-3.57921 1.84158,-1.48229 3.98638,-1.48229 2.14481,0 3.33555,1.48229 1.19073,1.4823 0.73958,3.57921 -0.45854,2.09691 -2.30011,3.57921 -1.83419,1.48229 -3.97899,1.48229 z m 0.62865,-2.89228 q 0.91709,0 1.70105,-0.63631 0.79136,-0.6363 0.99105,-1.53291 0.19229,-0.89661 -0.31802,-1.53291 -0.51032,-0.6363 -1.42741,-0.6363 -0.91709,0 -1.70845,0.6363 -0.79136,0.6363 -0.98365,1.53291 -0.19969,0.89661 0.31063,1.53291 0.51771,0.63631 1.4348,0.63631 z"
         id="path2745"
         style="font-style:italic;font-size:45.1556px;line-height:20.5;font-family:'Maximum Voltage';-inkscape-font-specification:'Maximum Voltage Italic';text-align:center;letter-spacing:-0.185208px;text-anchor:middle;fill:#cccccc;fill-opacity:1;stroke-width:0.175508;stroke-dashoffset:263.639" />
      <path
         d="m 260.71939,232.14344 h 3.69794 l -0.62865,2.89228 h -3.69794 z m 4.4893,-3.61536 -0.62865,2.89229 h -4.43013 l -2.21137,10.123 h -2.95836 l 2.5146,-11.56915 -1.16115,-1.44614 z"
         id="path2747"
         style="font-style:italic;font-size:45.1556px;line-height:20.5;font-family:'Maximum Voltage';-inkscape-font-specification:'Maximum Voltage Italic';text-align:center;letter-spacing:-0.185208px;text-anchor:middle;fill:#ff2ad4;fill-opacity:1;stroke-width:0.175508;stroke-dashoffset:263.639" />
      <path
         d="m 269.59149,228.52808 -2.20397,10.123 h -2.95836 l 2.19658,-10.123 z"
         id="path2749"
         style="font-style:italic;font-size:45.1556px;line-height:20.5;font-family:'Maximum Voltage';-inkscape-font-specification:'Maximum Voltage Italic';text-align:center;letter-spacing:-0.185208px;text-anchor:middle;fill:#ff2ad4;fill-opacity:1;stroke-width:0.175508;stroke-dashoffset:263.639" />
      <path
         d="m 270.23198,228.52808 h 7.42546 l -0.62865,2.89229 h -2.21876 l -2.20398,10.123 h -2.95835 l 2.20397,-10.123 h -2.21876 z"
         id="path2751"
         style="font-style:italic;font-size:45.1556px;line-height:20.5;font-family:'Maximum Voltage';-inkscape-font-specification:'Maximum Voltage Italic';text-align:center;letter-spacing:-0.185208px;text-anchor:middle;fill:#ff2ad4;fill-opacity:1;stroke-width:0.175508;stroke-dashoffset:263.639" />
      <g
         aria-label="Moda Fitness"
         transform="scale(1.0113565,0.98877104)"
         id="text2755"
         style="font-style:italic;font-size:7.48835px;line-height:20.5;-inkscape-font-specification:'sans-serif Italic';text-align:center;letter-spacing:-0.0868763px;text-anchor:middle;fill:#cccccc;stroke-width:0.175508;stroke-dashoffset:263.639;stop-color:#000000">
        <path
           d="m 217.88664,246.36929 h 1.1079 l 0.63621,3.67836 2.11341,-3.67836 h 1.13715 l -1.06402,5.45903 h -0.71666 l 0.92874,-4.78625 -2.14267,3.73686 h -0.72031 l -0.69472,-3.75149 -0.92873,4.80088 h -0.72032 z"
           id="path2786" />
        <path
           d="m 224.89688,251.93436 q -0.72032,0 -1.14081,-0.44243 -0.41683,-0.44608 -0.41683,-1.21393 0,-0.44608 0.1426,-0.90679 0.14626,-0.46437 0.37661,-0.77882 0.36199,-0.48996 0.80807,-0.72397 0.44609,-0.23401 1.00917,-0.23401 0.69838,0 1.12618,0.43511 0.43146,0.43512 0.43146,1.13715 0,0.4863 -0.1426,0.96895 -0.1426,0.48265 -0.37296,0.80076 -0.35833,0.48996 -0.80441,0.72397 -0.44608,0.23401 -1.01648,0.23401 z m -0.85926,-1.6783 q 0,0.55578 0.23035,0.83367 0.23401,0.27423 0.70569,0.27423 0.67644,0 1.11887,-0.58869 0.44608,-0.59234 0.44608,-1.49913 0,-0.53018 -0.23767,-0.80075 -0.23767,-0.27058 -0.69837,-0.27058 -0.38027,0 -0.67644,0.17916 -0.29617,0.17551 -0.53018,0.5375 -0.17185,0.27057 -0.26692,0.61793 -0.0914,0.34736 -0.0914,0.71666 z"
           id="path2788" />
        <path
           d="m 230.62005,251.21404 q -0.27057,0.35468 -0.63987,0.5375 -0.3693,0.18282 -0.81904,0.18282 -0.61428,0 -0.97261,-0.41683 -0.35467,-0.42049 -0.35467,-1.14812 0,-0.60696 0.21573,-1.15543 0.21573,-0.55212 0.62525,-0.98723 0.27057,-0.28886 0.61062,-0.43877 0.34005,-0.15357 0.713,-0.15357 0.39489,0 0.69472,0.19013 0.30348,0.19014 0.46802,0.54481 l 0.43877,-2.23042 h 0.67644 l -1.10789,5.68939 h -0.67644 z m -2.08781,-0.96529 q 0,0.53018 0.23766,0.82635 0.24133,0.29617 0.66547,0.29617 0.31445,0 0.58137,-0.14991 0.27058,-0.15357 0.47534,-0.44974 0.21573,-0.30714 0.34005,-0.70935 0.12431,-0.4022 0.12431,-0.79344 0,-0.50824 -0.24132,-0.79344 -0.23767,-0.28521 -0.65816,-0.28521 -0.3181,0 -0.59234,0.14992 -0.27423,0.14991 -0.46802,0.43146 -0.21207,0.30348 -0.34005,0.70568 -0.12431,0.40221 -0.12431,0.77151 z"
           id="path2790" />
        <path
           d="m 236.17869,249.49187 -0.45705,2.33645 h -0.67278 l 0.12431,-0.62159 q -0.29617,0.36564 -0.67643,0.54846 -0.37661,0.17917 -0.84098,0.17917 -0.52287,0 -0.85926,-0.31811 -0.33273,-0.32176 -0.33273,-0.82269 0,-0.71666 0.5704,-1.13349 0.57406,-0.41684 1.57957,-0.41684 h 0.93605 l 0.0366,-0.17916 q 0.007,-0.0292 0.011,-0.0622 0.004,-0.0366 0.004,-0.10969 0,-0.32542 -0.26692,-0.50459 -0.26327,-0.18282 -0.74226,-0.18282 -0.32907,0 -0.67643,0.0841 -0.34371,0.0841 -0.70935,0.25229 l 0.11701,-0.62159 q 0.38026,-0.1426 0.74225,-0.21207 0.36564,-0.0731 0.70569,-0.0731 0.72397,0 1.10058,0.31445 0.38027,0.31445 0.38027,0.91411 0,0.12066 -0.0183,0.2852 -0.0183,0.16088 -0.0549,0.3437 z m -0.72763,0.27789 h -0.67278 q -0.82635,0 -1.2249,0.22304 -0.39489,0.21939 -0.39489,0.68375 0,0.32177 0.2011,0.50459 0.20476,0.18282 0.56309,0.18282 0.54846,0 0.95798,-0.39124 0.40952,-0.39489 0.54115,-1.05305 z"
           id="path2792" />
        <path
           d="m 240.21713,246.36929 h 3.1299 l -0.12066,0.62159 h -2.39496 l -0.31445,1.60882 h 2.1646 l -0.12066,0.6216 h -2.1646 l -0.50824,2.60702 h -0.73494 z"
           id="path2794" />
        <path
           d="m 244.54356,246.13893 h 0.67278 l -0.16454,0.85195 h -0.67278 z m -0.30714,1.5942 h 0.67278 l -0.80076,4.09519 h -0.67278 z"
           id="path2796" />
        <path
           d="m 248.33249,247.73313 -0.10238,0.52287 h -1.34191 l -0.43511,2.2231 q -0.0219,0.12432 -0.0329,0.20842 -0.011,0.0841 -0.011,0.13163 0,0.23401 0.13895,0.34005 0.1426,0.10603 0.45339,0.10603 h 0.6801 l -0.11335,0.56309 h -0.64353 q -0.59966,0 -0.89583,-0.23401 -0.29251,-0.23401 -0.29251,-0.70934 0,-0.0841 0.011,-0.18282 0.011,-0.10238 0.0329,-0.22305 l 0.43511,-2.2231 h -0.5704 l 0.10604,-0.52287 h 0.55943 l 0.2267,-1.16274 h 0.67278 l -0.22304,1.16274 z"
           id="path2798" />
        <path
           d="m 252.18723,249.35658 -0.47899,2.47174 h -0.67644 l 0.47899,-2.44614 q 0.0329,-0.17185 0.0512,-0.30349 0.0183,-0.13163 0.0183,-0.20841 0,-0.30714 -0.19379,-0.47899 -0.19379,-0.17185 -0.54115,-0.17185 -0.54115,0 -0.93239,0.36198 -0.39124,0.35833 -0.5119,0.97627 l -0.44974,2.27063 h -0.67278 l 0.79344,-4.09519 h 0.67278 l -0.13528,0.64353 q 0.28154,-0.35467 0.67643,-0.54846 0.3949,-0.19379 0.83001,-0.19379 0.54115,0 0.83732,0.29251 0.29983,0.29252 0.29983,0.8227 0,0.13163 -0.0183,0.28154 -0.0146,0.14991 -0.0475,0.32542 z"
           id="path2800" />
        <path
           d="m 256.27599,249.41509 q 0.011,-0.0585 0.0146,-0.12067 0.007,-0.0622 0.007,-0.12431 0,-0.44609 -0.26326,-0.70569 -0.25961,-0.25961 -0.70935,-0.25961 -0.50093,0 -0.88485,0.31811 -0.38393,0.31445 -0.58137,0.89582 z m 0.58503,0.52652 h -3.1299 q -0.0219,0.13894 -0.0292,0.21939 -0.007,0.0804 -0.007,0.13894 0,0.50824 0.31079,0.78613 0.31446,0.27789 0.88486,0.27789 0.43877,0 0.83001,-0.0987 0.39123,-0.0987 0.72762,-0.28885 l -0.12797,0.66547 q -0.36199,0.14625 -0.74957,0.21938 -0.38392,0.0731 -0.78247,0.0731 -0.85195,0 -1.31266,-0.40586 -0.45705,-0.40952 -0.45705,-1.15909 0,-0.63987 0.2267,-1.18834 0.23035,-0.55211 0.67278,-0.98357 0.2852,-0.27058 0.67644,-0.41683 0.39489,-0.14626 0.83732,-0.14626 0.69472,0 1.10424,0.41683 0.41317,0.41683 0.41317,1.11887 0,0.16819 -0.0219,0.36198 -0.0219,0.19013 -0.0658,0.40952 z"
           id="path2802" />
        <path
           d="m 260.93881,247.85379 -0.12798,0.63622 q -0.26692,-0.14626 -0.56309,-0.21938 -0.29617,-0.0731 -0.61062,-0.0731 -0.53018,0 -0.83732,0.18282 -0.30348,0.17916 -0.30348,0.48996 0,0.36198 0.70934,0.55577 0.0548,0.0146 0.0804,0.0219 l 0.21573,0.0658 q 0.67278,0.18648 0.89583,0.39124 0.22669,0.20476 0.22669,0.55943 0,0.65084 -0.51921,1.06036 -0.51555,0.40952 -1.35287,0.40952 -0.32543,0 -0.68375,-0.0622 -0.35833,-0.0622 -0.78979,-0.19379 l 0.13163,-0.69472 q 0.3693,0.19013 0.72763,0.28886 0.35833,0.0987 0.6874,0.0987 0.49362,0 0.80076,-0.21207 0.3108,-0.21207 0.3108,-0.5375 0,-0.35101 -0.81173,-0.56674 l -0.0695,-0.0183 -0.23036,-0.0585 q -0.51189,-0.13528 -0.74956,-0.35467 -0.23767,-0.22304 -0.23767,-0.56674 0,-0.6545 0.48996,-1.03843 0.49362,-0.38392 1.33825,-0.38392 0.33274,0 0.64719,0.0548 0.31811,0.0549 0.62525,0.16454 z"
           id="path2804" />
        <path
           d="m 264.75333,247.85379 -0.12798,0.63622 q -0.26692,-0.14626 -0.56309,-0.21938 -0.29617,-0.0731 -0.61062,-0.0731 -0.53018,0 -0.83732,0.18282 -0.30348,0.17916 -0.30348,0.48996 0,0.36198 0.70934,0.55577 0.0549,0.0146 0.0805,0.0219 l 0.21572,0.0658 q 0.67279,0.18648 0.89583,0.39124 0.2267,0.20476 0.2267,0.55943 0,0.65084 -0.51922,1.06036 -0.51555,0.40952 -1.35287,0.40952 -0.32542,0 -0.68375,-0.0622 -0.35833,-0.0622 -0.78979,-0.19379 l 0.13163,-0.69472 q 0.3693,0.19013 0.72763,0.28886 0.35833,0.0987 0.68741,0.0987 0.49361,0 0.80075,-0.21207 0.3108,-0.21207 0.3108,-0.5375 0,-0.35101 -0.81173,-0.56674 l -0.0695,-0.0183 -0.23035,-0.0585 q -0.5119,-0.13528 -0.74957,-0.35467 -0.23767,-0.22304 -0.23767,-0.56674 0,-0.6545 0.48996,-1.03843 0.49362,-0.38392 1.33825,-0.38392 0.33274,0 0.64719,0.0548 0.31811,0.0549 0.62525,0.16454 z"
           id="path2806" />
      </g>
      <path
         id="path2757"
         style="fill:#cccccc;fill-opacity:1;fill-rule:evenodd;stroke:none;stroke-width:6.66194;stroke-dashoffset:263.639;stop-color:#000000"
         d="m 243.5226,151.37215 a 54.989105,54.989105 0 0 0 -54.98941,54.98941 54.989105,54.989105 0 0 0 54.98941,54.98889 54.989105,54.989105 0 0 0 54.98889,-54.98889 54.989105,54.989105 0 0 0 -54.98889,-54.98941 z m 0,2.20452 a 52.78453,52.78453 0 0 1 52.78438,52.78489 52.78453,52.78453 0 0 1 -52.78438,52.78438 52.78453,52.78453 0 0 1 -52.78489,-52.78438 52.78453,52.78453 0 0 1 52.78489,-52.78489 z" />
    </g>
  </g>
</svg>
