<?xml version="1.0" encoding="UTF-8" standalone="no"?>
<!-- Created with Inkscape (http://www.inkscape.org/) -->

<svg
   width="210mm"
   height="297mm"
   viewBox="0 0 210 297"
   version="1.1"
   id="svg5"
   inkscape:version="1.1.2 (0a00cf5339, 2022-02-04)"
   sodipodi:docname="logo_familia_do_ceu.svg"
   xmlns:inkscape="http://www.inkscape.org/namespaces/inkscape"
   xmlns:sodipodi="http://sodipodi.sourceforge.net/DTD/sodipodi-0.dtd"
   xmlns="http://www.w3.org/2000/svg"
   xmlns:svg="http://www.w3.org/2000/svg">
  <sodipodi:namedview
     id="namedview7"
     pagecolor="#ffffff"
     bordercolor="#000000"
     borderopacity="0.25"
     inkscape:pageshadow="2"
     inkscape:pageopacity="0.0"
     inkscape:pagecheckerboard="0"
     inkscape:document-units="mm"
     showgrid="false"
     inkscape:zoom="0.37683081"
     inkscape:cx="-315.79159"
     inkscape:cy="375.50008"
     inkscape:window-width="1920"
     inkscape:window-height="1018"
     inkscape:window-x="0"
     inkscape:window-y="1105"
     inkscape:window-maximized="1"
     inkscape:current-layer="layer1" />
  <defs
     id="defs2" />
  <g
     inkscape:label="Layer 1"
     inkscape:groupmode="layer"
     id="layer1">
    <g
       id="g13981"
       transform="translate(1.940547,-0.64213419)">
      <rect
         style="fill:#fbffce;fill-opacity:1;fill-rule:evenodd;stroke-width:4.78038;stroke-dashoffset:263.639;stop-color:#000000"
         id="rect6347"
         width="208.69281"
         height="291.67877"
         x="-1.286952"
         y="3.3027482" />
      <path
         style="fill:#b57d33;fill-opacity:1;stroke-width:0.264583"
         d="m 41.372784,180.95508 c -0.57488,-0.57488 -0.64883,-0.82249 -0.49387,-1.65364 0.10023,-0.53764 0.20154,-1.09658 0.22513,-1.24211 0.0243,-0.14998 -0.41553,-0.2309 -1.01545,-0.18683 -0.81126,0.0596 -1.22173,0.27329 -1.75821,0.91531 -0.60322,0.7219 -0.7585,0.7889 -1.12448,0.48517 -0.23353,-0.19382 -0.42285,-0.66524 -0.42071,-1.0476 0.01,-1.77152 1.28647,-2.62268 3.98853,-2.65946 1.2949,-0.0176 1.51491,-0.0992 1.76849,-0.65574 0.28814,-0.6324 0.28199,-0.63544 -1.21749,-0.60097 -1.83117,0.0421 -3.24958,-0.71413 -3.76421,-2.0069 -0.18776,-0.47166 -0.37853,-0.90533 -0.42393,-0.96372 -0.0454,-0.0584 -0.68222,0.45475 -1.41514,1.14031 -2.29061,2.1426 -3.73314,2.40185 -5.05694,0.90885 l -0.69285,-0.78139 -1.24331,0.8391 c -2.12206,1.43216 -4.78615,1.03716 -5.99639,-0.88907 -1.4785,-2.35321 0.90206,-7.54702 4.39826,-9.59593 2.06052,-1.20755 5.01444,-1.08533 5.7343,0.23725 l 0.31248,0.57413 0.15879,-0.65451 c 0.34924,-1.43945 2.90795,-1.23453 3.63934,0.29146 0.44878,0.93636 -0.0198,2.4427 -1.51216,4.86096 -2.00005,3.24099 -2.41468,4.05198 -2.15398,4.21311 0.56889,0.35159 3.59574,-3.01782 5.16088,-5.74498 1.72625,-3.00786 3.96892,-4.53159 6.68995,-4.54531 1.3522,-0.007 1.74441,0.0976 2.29009,0.6097 0.65101,0.61095 0.66041,0.6118 0.83067,0.0753 0.37699,-1.18778 3.0428,-0.92396 3.62734,0.35897 0.4154,0.9117 2.3e-4,2.22873 -1.78831,5.67292 -0.78726,1.51603 -1.39625,2.79154 -1.35332,2.83447 0.23982,0.23983 1.90166,-1.13804 3.07928,-2.55309 1.47334,-1.7704 3.19673,-4.93603 3.2805,-6.02581 0.11045,-1.43704 2.99622,-1.28556 3.60714,0.18934 0.44292,1.0693 0.0225,2.38806 -1.61492,5.06547 -0.75046,1.22712 -1.59074,2.6076 -1.8673,3.06774 -0.65609,1.09163 -0.22385,1.34499 0.81019,0.4749 2.05773,-1.73146 5.267279,-6.65317 5.575589,-8.54994 0.12533,-0.77103 0.29494,-0.96819 0.98731,-1.1476 1.05727,-0.27396 2.04348,0.0913 2.6193,0.97011 0.62935,0.96052 0.16689,2.42589 -1.74541,5.53059 -2.04295,3.31683 -2.15701,3.54508 -1.86239,3.72717 0.35081,0.21682 1.95291,-1.25084 3.35629,-3.07463 1.36124,-1.76903 3.27485,-5.43958 3.27485,-6.28157 0,-0.68774 1.1221,-1.1919 2.10634,-0.94637 1.10261,0.27505 1.59783,0.90421 1.59783,2.02998 0,1.17816 -0.52409,2.30942 -2.58612,5.58219 -1.06777,1.69473 -1.3866,2.40563 -1.17417,2.61806 0.38565,0.38565 2.76956,-2.04294 4.31964,-4.40061 1.0836,-1.64816 1.81361,-2.1255 2.22719,-1.45631 0.43832,0.70921 -3.65712,5.9512 -5.57614,7.13721 -1.22992,0.76013 -2.62294,0.74933 -3.44904,-0.0267 -0.35229,-0.33096 -0.64053,-0.79928 -0.64053,-1.0407 0,-0.82332 -0.34268,-0.78274 -1.39148,0.16478 -1.29234,1.16756 -2.47972,1.68518 -3.44319,1.501 -0.757839,-0.14487 -1.779909,-1.1967 -1.779909,-1.83173 0,-0.52512 -0.20077,-0.4562 -1.37095,0.4706 -2.50086,1.98072 -4.7372,1.73189 -5.21124,-0.57985 l -0.16469,-0.80312 -0.92604,0.69366 c -0.50932,0.38151 -1.58685,1.03101 -2.39449,1.44332 -0.90896,0.46403 -1.59235,1.02157 -1.79362,1.46332 l -0.32517,0.71366 2.01811,-0.10191 c 1.58091,-0.0798 2.09568,-0.20801 2.37622,-0.59166 0.43277,-0.59186 1.17728,-0.38337 1.17728,0.32967 0,0.27779 -0.1591,0.63712 -0.35357,0.79851 -0.64781,0.53764 -2.6121,1.09572 -4.46168,1.26762 -1.79168,0.16652 -1.83916,0.1904 -2.3432,1.17839 -0.28295,0.55464 -0.51446,1.30665 -0.51446,1.67113 0,1.28622 -1.73571,1.61548 -2.81685,0.53434 z m -12.74804,-9.34861 c 0.76042,-0.88858 3.92322,-5.90658 3.92322,-6.22447 0,-0.0621 -0.34724,-0.18918 -0.77165,-0.28239 -0.76654,-0.16836 -1.21824,-0.75846 -0.93338,-1.21936 0.19493,-0.31541 -0.0615,-0.30513 -0.68273,0.0274 -0.73923,0.39563 -2.88407,3.51468 -3.46099,5.03302 -1.21527,3.19831 0.0137,4.89983 1.92553,2.66584 z m 15.11298,-0.31616 c 1.03521,-1.1834 3.06381,-4.40647 3.48703,-5.54025 0.10285,-0.27552 -0.10233,-0.49843 -0.64859,-0.70462 -0.53738,-0.20284 -0.79903,-0.48241 -0.79903,-0.85375 0,-0.84779 -0.37212,-0.67228 -1.69558,0.79972 -1.64409,1.82863 -2.80234,4.30193 -2.80234,5.98405 0,2.16286 0.75711,2.25981 2.45851,0.31485 z m 80.740926,8.36855 c -0.35719,-0.35719 -0.64944,-0.87136 -0.64944,-1.1426 0,-1.01204 0.90939,-3.53996 3.47785,-9.66778 1.45246,-3.46524 2.72512,-6.7942 2.82814,-7.3977 0.14742,-0.86358 0.32702,-1.13618 0.84327,-1.27996 1.21792,-0.33921 2.31332,-0.23852 2.94174,0.27041 1.27731,1.03444 0.65144,3.23896 -3.44044,12.1184 -1.02023,2.21391 -2.06291,4.71423 -2.31706,5.55625 -0.25414,0.84202 -0.64153,1.67978 -0.86086,1.86168 -0.67697,0.56146 -2.10417,0.40034 -2.8232,-0.3187 z m -44.984307,-5.7805 c -1.20451,-1.03608 -0.98426,-2.25505 1.19146,-6.59421 1.02763,-2.04945 1.86841,-3.99231 1.86841,-4.31745 0,-0.46204 0.19516,-0.62779 0.89339,-0.75878 1.16628,-0.2188 2.21252,0.19674 2.59192,1.02944 0.3753,0.82371 0.43252,0.82369 1.54955,-5.3e-4 2.588,-1.90937 5.01931,-1.10792 5.01931,1.65453 0,0.86782 -0.37379,1.85966 -1.59162,4.22326 -1.14216,2.21674 -1.51023,3.16869 -1.30339,3.37101 0.39722,0.38855 3.28203,-2.67517 4.60817,-4.89397 2.3542,-3.93886 4.28162,-5.38452 7.198477,-5.3992 1.45457,-0.007 1.72544,0.0778 2.44739,0.76887 0.77988,0.74656 0.8118,0.7541 0.8118,0.19189 0,-1.1275 2.13344,-1.37645 3.24115,-0.3782 1.08644,0.97908 0.47369,2.98803 -2.16978,7.11382 -1.33593,2.08505 -1.58843,2.74643 -1.04851,2.74643 0.47318,0 3.1105,-2.89872 4.27357,-4.69714 0.81526,-1.26063 1.21682,-1.65833 1.61476,-1.59923 0.80371,0.11936 0.78799,0.52225 -0.0707,1.81228 -2.51081,3.77191 -5.088,6.10264 -6.80167,6.15121 -0.76239,0.0216 -1.11177,-0.14599 -1.71749,-0.8239 l -0.7604,-0.85104 -1.01406,0.67107 c -1.416397,0.93733 -2.564937,1.21973 -3.816767,0.93846 -1.16944,-0.26275 -2.5177,-1.40172 -2.74867,-2.32198 -0.0832,-0.33135 -0.2153,-0.60254 -0.29357,-0.60254 -0.0783,0 -0.72273,0.54291 -1.43213,1.20647 -0.70939,0.66355 -1.70847,1.38139 -2.22018,1.5952 -0.82896,0.34636 -1.02757,0.34261 -1.82207,-0.0344 -1.98035,-0.93973 -1.89342,-3.11638 0.28852,-7.22455 0.79966,-1.50563 1.39502,-2.79642 1.32301,-2.86843 -1.02394,-1.02394 -7.57914,6.99208 -7.57914,9.26814 0,0.52567 -0.18076,0.78524 -0.67868,0.97455 -0.94254,0.35835 -1.05121,0.33775 -1.85202,-0.35107 z m 19.74046,-1.5139 c 0.54924,-0.29395 2.154647,-2.55644 3.749037,-5.28353 l 1.00442,-1.71798 -0.85439,-0.28767 c -0.55233,-0.18597 -0.91236,-0.514 -1.01836,-0.92785 -0.16043,-0.62632 -0.18992,-0.61363 -1.36254,0.58634 -3.183437,3.25772 -4.355587,9.14923 -1.518167,7.63069 z m 50.618447,1.73844 c -1.81955,-0.78698 -1.72361,-2.99053 0.30617,-7.03206 0.65255,-1.29932 1.18646,-2.48383 1.18646,-2.63226 0,-0.14843 -0.42226,-0.26987 -0.93835,-0.26987 -0.77652,0 -1.01607,0.14169 -1.38906,0.82161 -2.31958,4.22835 -4.89611,7.14346 -7.45582,8.4356 -3.0753,1.5524 -6.03269,0.89788 -6.87561,-1.52169 -0.32309,-0.92741 -0.33193,-1.31906 -0.0535,-2.37262 0.7381,-2.7934 2.3658,-5.01941 4.69213,-6.4169 1.32258,-0.79451 1.76811,-0.92231 3.22824,-0.92604 1.4834,-0.004 1.75956,0.0766 2.22208,0.64724 1.32461,1.63411 -0.91997,4.70888 -4.54256,6.22271 -1.46222,0.61104 -1.85208,1.05714 -1.85208,2.1192 0,3.5554 5.54862,0.0869 8.32309,-5.20288 l 1.04706,-1.9963 -0.71633,-0.85131 c -0.39398,-0.46822 -0.71632,-1.17171 -0.71632,-1.56332 0,-0.70296 -0.0413,-0.71934 -3.24115,-1.28661 -1.78263,-0.31601 -5.20568,-0.93023 -7.60677,-1.36491 -8.83642,-1.59972 -9.74902,-1.63287 -11.80382,-0.42876 -1.29056,0.75626 -1.8363,1.82598 -1.44996,2.84212 0.31453,0.82727 0.90368,1.17813 2.37273,1.41304 1.27879,0.20449 1.36108,0.5434 0.36386,1.49858 -2.19805,2.10536 -5.92332,2.00155 -7.36934,-0.20536 -0.39152,-0.59753 -0.41113,-0.8715 -0.14492,-2.02476 0.52925,-2.29283 1.85153,-3.76334 4.5377,-5.04637 1.43027,-0.68315 2.1265,-0.84107 4.13566,-0.93808 2.55569,-0.12338 3.40566,-0.0319 12.00392,1.29166 4.95002,0.76199 5.62811,0.81023 7.76026,0.55206 2.4574,-0.29754 2.98889,-0.54743 3.38604,-1.592 0.21448,-0.56414 0.3591,-0.62099 1.223,-0.4808 1.22581,0.19892 2.23786,0.93604 2.57139,1.87282 0.35419,0.99482 -0.49395,2.56815 -1.57959,2.9302 -1.2345,0.41168 -1.45485,0.63445 -1.45485,1.47082 0,0.91805 0.46018,1.00106 1.99484,0.35984 1.86193,-0.77797 3.56141,0.0705 3.56141,1.77815 0,0.96669 -0.73108,2.54834 -2.49002,5.38702 -1.99396,3.21797 -1.97738,3.97825 0.044,2.01659 1.51642,-1.47163 3.02778,-3.57562 4.16869,-5.80328 l 0.99081,-1.93461 -0.69526,-0.72571 c -1.31137,-1.36876 -0.57999,-3.47487 1.2067,-3.47487 1.0948,0 1.8022,0.84295 1.8022,2.14752 0,1.21302 -0.10007,1.19248 2.39324,0.4912 2.23693,-0.62916 3.59538,0.69565 2.94369,2.87079 -0.17135,0.57191 -1.09012,2.3238 -2.0417,3.89308 -0.95159,1.56929 -1.68398,3.04248 -1.62754,3.27377 0.14875,0.60952 3.52691,-2.93311 4.66602,-4.89321 2.18673,-3.76275 4.18259,-5.24681 7.07584,-5.26137 1.45458,-0.007 1.72544,0.0778 2.4474,0.76887 0.77988,0.74655 0.8118,0.75409 0.8118,0.19189 0,-1.12751 2.13344,-1.37646 3.24114,-0.37821 0.57453,0.51776 0.59941,1.87792 0.058,3.17361 -0.22275,0.5331 -1.11572,2.11925 -1.98438,3.52478 -1.58246,2.56048 -1.8282,3.16187 -1.29195,3.16187 0.46464,0 3.1056,-2.88905 4.29579,-4.69933 0.80342,-1.222 1.23615,-1.65051 1.61041,-1.5947 0.82132,0.12248 0.76418,0.56296 -0.27048,2.08525 -2.21937,3.26534 -4.52635,5.46138 -6.17211,5.87531 -0.81115,0.20401 -2.32342,-0.4891 -2.53728,-1.1629 -0.21251,-0.66957 -0.55312,-0.63501 -1.48708,0.15087 -1.08027,0.90898 -2.61735,1.2866 -3.86262,0.94894 -1.18046,-0.32008 -2.37725,-1.36412 -2.60531,-2.27276 -0.0902,-0.35948 -0.24603,-0.6536 -0.34624,-0.6536 -0.10021,0 -0.65285,0.49091 -1.22809,1.0909 -1.4408,1.50282 -2.96229,2.1725 -4.06358,1.78859 -0.89461,-0.31186 -1.61251,-1.39285 -1.61251,-2.42806 0,-0.94225 0.94064,-3.50067 1.9869,-5.40411 0.50793,-0.92406 0.92351,-1.79508 0.92351,-1.93559 0,-0.14052 -0.44648,-0.25199 -0.99218,-0.24772 -0.964,0.008 -1.02525,0.0677 -2.15543,2.11599 -2.23572,4.052 -5.44383,7.4548 -7.56801,8.02732 -0.29104,0.0784 -0.9032,-0.0192 -1.36034,-0.21688 z m 21.90419,-1.75279 c 0.69696,-0.373 4.72386,-6.56002 4.72386,-7.25783 0,-0.0886 -0.10908,-0.0936 -0.24238,-0.0112 -0.46506,0.28742 -1.56848,-0.35043 -1.66799,-0.96421 -0.0927,-0.57169 -0.17406,-0.53335 -1.30975,0.61695 -3.20869,3.25001 -4.37405,9.15249 -1.50374,7.61634 z m -29.10064,-6.69974 c 0.79374,-1.08977 0.98144,-2.01083 0.40979,-2.01083 -0.65746,0 -3.36238,3.14728 -3.36238,3.91226 0,0.60538 2.12212,-0.76125 2.95259,-1.90143 z m -72.280697,-4.72004 c -1.17758,-0.79357 -1.24287,-1.24562 -0.37031,-2.56414 0.89462,-1.35186 1.81756,-1.44081 3.08539,-0.29734 l 0.86407,0.77931 -0.66146,1.27121 c -0.79309,1.5242 -1.54797,1.73401 -2.91769,0.81096 z m 60.199987,-6.66509 c -0.14552,-0.0574 -0.59905,-0.17839 -1.00783,-0.26881 -1.25462,-0.27751 -3.03732,-2.15005 -3.50877,-3.68559 -0.57276,-1.86553 -0.81214,-9.34646 -0.39814,-12.44242 0.36018,-2.69348 0.91562,-3.96143 2.24766,-5.13098 1.05316,-0.92469 2.23996,-1.25019 4.42369,-1.21329 3.15678,0.0533 5.17728,1.88759 5.75901,5.22808 0.37638,2.16137 0.37335,10.09109 -0.005,12.26197 -0.3597,2.06556 -1.54355,3.92717 -2.95718,4.65019 -0.91254,0.46673 -3.89605,0.86039 -4.55374,0.60085 z m 2.70588,-4.83541 c 0.41326,-0.63072 0.46912,-1.41041 0.46912,-6.54844 0,-6.25119 -0.11412,-6.87564 -1.31146,-7.17615 -0.94212,-0.23646 -1.63964,0.0812 -1.95314,0.88946 -0.41455,1.06879 -0.62079,6.94223 -0.35418,10.08653 0.25472,3.00419 0.51297,3.46456 1.94346,3.46456 0.50922,0 0.8821,-0.22133 1.2062,-0.71596 z m 19.25453,4.81926 c -0.14552,-0.0485 -0.58982,-0.15992 -0.98733,-0.24752 -0.97749,-0.21539 -2.50082,-1.59608 -3.13716,-2.84342 -0.68495,-1.34261 -1.01854,-4.05723 -1.01854,-8.2884 0,-4.23117 0.33359,-6.94579 1.01854,-8.2884 1.42442,-2.7921 4.45427,-3.78002 8.14194,-2.65477 1.9098,0.58276 3.52318,3.49566 3.52318,6.36099 v 1.27489 h -2.09763 -2.09763 l -0.18617,-1.49005 c -0.20563,-1.64584 -0.80885,-2.4787 -1.79527,-2.4787 -0.65259,0 -1.29021,0.575 -1.60096,1.44372 -0.10185,0.28473 -0.18671,2.9071 -0.18858,5.8275 -0.004,6.48275 0.20505,7.26707 1.94087,7.27681 0.9862,0.006 1.43323,-0.80047 1.65436,-2.98285 l 0.18201,-1.79628 2.16065,0.0765 2.16064,0.0765 -0.0816,1.85208 c -0.16389,3.72155 -1.60259,6.07738 -4.09466,6.70489 -1.14086,0.28727 -2.89868,0.37602 -3.4967,0.17653 z m 27.02857,-0.23846 c -1.35145,-0.50502 -2.24205,-1.36068 -2.92109,-2.8065 -0.52899,-1.12631 -0.56392,-1.68017 -0.6467,-10.25261 l -0.0875,-9.06197 h 2.24823 2.24822 l 0.0881,8.69094 c 0.0969,9.56492 0.11396,9.66338 1.64699,9.51267 1.41658,-0.13927 1.47557,-0.53004 1.47988,-9.80309 l 0.004,-8.40052 h 2.24895 2.24896 v 8.55093 c 0,6.89194 -0.0783,8.81448 -0.4034,9.90933 -0.45812,1.54266 -1.40784,2.79946 -2.56935,3.4001 -1.12929,0.58397 -4.32136,0.73298 -5.58514,0.26072 z M 17.995884,142.86416 v -10.9858 l 5.22552,0.0717 5.22552,0.0717 v 1.98437 1.98438 l -2.91042,0.13229 -2.91041,0.13229 -0.0776,1.90885 -0.0776,1.90884 2.72338,0.0755 2.72338,0.0755 0.0769,2.18281 0.0768,2.18281 h -2.78882 -2.78883 v 4.63021 4.63021 h -2.24895 -2.24896 z m 10.58333,10.52096 c 0,-0.26743 0.89297,-5.11445 1.98438,-10.77116 1.0914,-5.6567 1.98437,-10.38796 1.98437,-10.51392 0,-0.12595 1.22039,-0.19508 2.71198,-0.1536 l 2.71198,0.0754 0.58138,2.91041 c 0.64778,3.24276 3.21715,16.71577 3.44372,18.05782 l 0.14518,0.85989 h -2.25875 -2.25875 l -0.17112,-1.38906 c -0.37266,-3.02501 -0.23613,-2.84427 -2.14852,-2.84427 -0.93432,0 -1.70624,0.0298 -1.71537,0.0661 -0.009,0.0364 -0.15796,0.95912 -0.33073,2.05052 l -0.31412,1.98438 -2.18282,0.0768 c -1.97007,0.0694 -2.18281,0.0295 -2.18281,-0.40939 z m 7.9375,-8.0752 c 0,-0.62899 -1.07396,-7.96795 -1.18178,-8.07577 -0.12342,-0.12341 -0.26071,0.62226 -0.80593,4.37709 -0.59882,4.12396 -0.61606,4.03664 0.79709,4.03664 0.78969,0 1.19062,-0.1138 1.19062,-0.33796 z m 7.14375,-2.44017 v -10.9802 h 3.14573 3.14573 l 0.8229,4.29947 c 0.7398,3.8653 1.32201,7.61286 1.34414,8.65188 0.005,0.23276 0.0976,0.28479 0.2356,0.13229 0.12509,-0.13824 0.37052,-1.32292 0.5454,-2.6326 0.26987,-2.021 1.30553,-7.84787 1.75323,-9.86407 0.13143,-0.59189 0.19443,-0.60219 3.23576,-0.52916 l 3.101719,0.0745 v 10.84791 10.84792 l -1.958739,0.0785 c -1.0773,0.0432 -2.03997,-0.0163 -2.13925,-0.13229 -0.0993,-0.11596 -0.0961,-3.42553 0.007,-7.35459 0.10316,-3.92907 0.12213,-7.2556 0.0421,-7.3923 -0.11793,-0.20156 -1.15205,5.15467 -2.62768,13.61 l -0.20779,1.19063 h -1.71725 -1.71724 l -0.30109,-1.32292 c -0.16561,-0.7276 -0.73748,-3.82323 -1.27082,-6.87916 -0.53335,-3.05594 -1.08192,-5.79438 -1.21905,-6.08542 -0.15839,-0.33618 -0.18927,2.19682 -0.0847,6.94531 l 0.16465,7.47448 h -2.15024 -2.15024 v -10.98021 z m 20.372919,0 v -11.00161 l 2.18281,0.0768 2.18281,0.0769 v 10.84791 10.84792 l -2.18281,0.0768 -2.18281,0.0769 z m 7.26464,10.64904 c -0.0699,-0.18214 -0.0959,-5.09347 -0.0578,-10.91406 l 0.0692,-10.58289 2.17918,-0.0768 2.17919,-0.0768 0.0698,8.67575 0.0698,8.67574 2.71198,0.0754 2.71197,0.0754 v 2.2397 2.2397 h -4.90309 c -3.68188,0 -4.93475,-0.0825 -5.03018,-0.33117 z m 11.78536,-10.64904 v -11.00161 l 2.18281,0.0768 2.18281,0.0769 v 10.84791 10.84792 l -2.18281,0.0768 -2.18281,0.0769 z m 6.01845,10.79212 c -0.061,-0.11483 0.74558,-4.6141 1.79247,-9.99837 1.04689,-5.38427 1.98606,-10.24016 2.08704,-10.79087 l 0.1836,-1.00129 2.68889,0.0752 2.68889,0.0753 0.19893,0.92604 c 0.39847,1.85482 3.920897,20.40723 3.920897,20.6511 0,0.13836 -0.99869,0.25098 -2.22571,0.25098 h -2.225697 l -0.15555,-1.05833 c -0.0856,-0.58209 -0.22642,-1.53977 -0.31304,-2.12818 l -0.15749,-1.06985 -1.76074,0.0777 -1.76073,0.0777 -0.26459,1.98437 -0.26458,1.98438 -2.1608,0.0765 c -1.18845,0.0421 -2.21075,-0.0175 -2.27179,-0.13229 z m 8.00446,-8.2047 c 0,-0.48696 -1.11883,-8.15514 -1.20241,-8.24103 -0.19804,-0.20352 -1.17884,6.15799 -1.17884,7.646 0,0.75486 0.0468,0.78574 1.19063,0.78574 0.65484,0 1.19062,-0.0858 1.19062,-0.19071 z m 14.022917,-2.59186 V 131.8252 l 4.0349,0.11985 c 4.47419,0.1329 5.46067,0.39488 6.6042,1.75388 1.27593,1.51636 1.39944,2.32577 1.39944,9.17082 0,6.82239 -0.1257,7.65707 -1.37717,9.14435 -1.25147,1.4873 -1.93309,1.67497 -6.49418,1.78802 l -4.16719,0.10329 z m 6.79827,6.37746 0.74236,-0.63844 v -5.73479 c 0,-5.70766 -0.003,-5.73718 -0.62463,-6.24072 -0.34354,-0.27827 -1.02815,-0.50594 -1.52135,-0.50594 h -0.89673 v 6.70278 c 0,3.68652 0.0794,6.78215 0.17639,6.87916 0.37461,0.37461 1.41405,0.14849 2.12396,-0.46205 z m 45.06007,-6.37302 v -10.9802 h 5.15937 5.15938 v 2.10771 2.10772 l -2.84427,0.0751 -2.84428,0.0751 -0.0775,1.90885 -0.0776,1.90884 2.72338,0.0755 2.72338,0.0755 0.0769,2.18281 0.0768,2.18281 h -2.78882 -2.78883 v 2.38125 2.38125 h 2.91042 2.91042 v 2.24896 2.24896 h -5.15938 -5.15937 z M 64.827133,130.69521 c 0,-0.0748 0.26789,-0.55345 0.59531,-1.06366 0.70778,-1.10292 1.2478,-1.28407 2.9681,-0.99566 l 1.2899,0.21625 -1.43676,0.98954 c -1.03183,0.71065 -1.71574,0.98953 -2.42666,0.98953 -0.54444,0 -0.98989,-0.0612 -0.98989,-0.136 z m 101.599997,-0.84028 c 0,-0.10039 0.48991,-0.99336 1.08869,-1.98438 l 1.08869,-1.80183 h 1.71148 c 0.94132,0 1.6718,0.0972 1.62329,0.21603 -0.0485,0.11882 -0.93611,1.01179 -1.97245,1.98438 -1.49499,1.40302 -2.05525,1.76833 -2.71198,1.76833 -0.45525,0 -0.82772,-0.0821 -0.82772,-0.18253 z M 58.212544,122.34047 v -5.31575 l 2.751059,0.0902 c 3.12613,0.10253 3.64786,0.36734 4.17228,2.11767 0.6594,2.20088 -0.66406,4.17497 -2.94595,4.39423 l -1.33155,0.12794 v 1.95071 1.95071 h -1.322919 -1.32292 z m 4.337589,-1.62957 c 0.39965,-0.63828 -0.0893,-1.3651 -0.99083,-1.47278 -0.65861,-0.0787 -0.70092,-0.0177 -0.70092,1.00976 0,1.02748 0.0423,1.08843 0.70092,1.00976 0.3855,-0.0461 0.83137,-0.29208 0.99083,-0.54674 z m 9.94991,1.65365 v -5.29167 l 2.57969,0.004 c 3.09748,0.005 3.76632,0.2786 4.27887,1.75235 0.34817,1.00109 0.33379,1.16773 -0.19262,2.23168 -0.51644,1.04383 -0.53239,1.20549 -0.17303,1.75394 0.21771,0.33227 0.45803,1.17057 0.53404,1.8629 0.076,0.69233 0.18543,1.64573 0.24316,2.11867 l 0.10496,0.85989 h -1.43857 -1.43858 v -1.79916 c 0,-1.931 -0.25705,-2.43417 -1.24354,-2.43417 -0.58429,0 -0.60854,0.0844 -0.60854,2.11667 v 2.11666 h -1.32292 -1.32292 v -5.29166 z m 4.07941,-1.48352 c 0.92668,-0.3556 0.2751,-1.69148 -0.82503,-1.69148 -0.51909,0 -0.60854,0.13613 -0.60854,0.92604 0,0.9551 0.39279,1.16483 1.43357,0.76544 z m 11.62019,6.35039 c -1.25008,-0.61654 -1.54439,-1.61962 -1.54439,-5.26375 0,-3.56494 0.26284,-4.28589 1.79884,-4.93418 1.14717,-0.48417 3.15648,-0.41975 3.99246,0.128 1.40221,0.91876 1.61796,1.59831 1.60631,5.05931 -0.0119,3.52083 -0.19358,4.10606 -1.52751,4.91941 -1.03468,0.63089 -3.14141,0.67531 -4.32571,0.0912 z m 3.0329,-1.74479 c 0.20881,-0.2088 0.3175,-1.32291 0.3175,-3.25437 0,-1.93146 -0.10869,-3.04557 -0.3175,-3.25438 -0.45996,-0.45996 -1.71341,-0.39343 -1.90315,0.10102 -0.0883,0.23018 -0.1606,1.69465 -0.1606,3.25437 0,2.97969 0.1685,3.47086 1.19063,3.47086 0.30559,0 0.6985,-0.14287 0.87312,-0.3175 z m 10.228107,1.56554 c -0.51454,-0.44258 -0.73985,-0.93763 -0.84292,-1.85208 l -0.14067,-1.24804 h 1.09274 c 0.90083,0 1.09275,0.0891 1.09275,0.50753 0,0.90901 0.30913,1.34455 0.95434,1.34455 h 0.63316 v -4.36562 -4.36563 h 1.32291 1.32292 l -0.0149,4.0349 c -0.0214,5.77943 -0.40805,6.5362 -3.34376,6.54453 -1.05334,0.003 -1.5383,-0.13717 -2.07654,-0.60014 z m 12.84356,-4.68762 v -5.29167 h 3.04271 3.04271 v 1.05834 1.05833 h -1.71979 -1.71979 v 0.92604 0.92604 h 1.5875 1.5875 v 1.19063 1.19062 h -1.5875 -1.5875 v 1.05834 1.05833 h 1.71979 1.71979 v 1.05833 1.05833 h -3.04271 -3.04271 z m 15.08125,1.05833 v -4.23333 h -1.19062 -1.19063 v -1.05833 -1.05834 h 3.57188 3.57187 v 1.04312 c 0,1.03805 -0.005,1.04352 -1.12448,1.12448 l -1.12448,0.0814 -0.0729,4.16719 -0.0729,4.16718 h -1.1839 -1.18391 z m 12.7,3.7699 c -1.21565,-0.60729 -1.55406,-1.64725 -1.57109,-4.82823 -0.0213,-3.98514 0.42364,-4.91599 2.66311,-5.57098 1.17186,-0.34274 3.16627,0.12242 3.90742,0.91134 0.7483,0.79654 1.18193,3.28586 0.98588,5.65973 -0.18633,2.25621 -0.66981,3.33509 -1.74332,3.89022 -1.03949,0.53754 -3.10212,0.50735 -4.242,-0.0621 z m 3.16569,-1.90042 c 0.15064,-0.28148 0.2739,-1.75518 0.2739,-3.27489 0,-3.03915 -0.19045,-3.46221 -1.49007,-3.31006 -0.58203,0.0681 -0.77667,0.27126 -0.96906,1.01131 -0.26832,1.03205 -0.14231,5.25051 0.17203,5.75911 0.32386,0.52402 1.70142,0.39711 2.0132,-0.18547 z"
         id="path954"
         sodipodi:nodetypes="sssssscssssssscsssscssssscscsssssssssssssssssssssssssssssscsssccsssssssssssscssssssssssssssssssssssssscsssscssssssscsscssssssssssssssscssssssssssscsccssscsssssssssssssssssssssssscsssssssscsssssssssssssssssssscsssssscssssssssssscsscsssscscsccssssssscsssssscccsssccscccsscccssccccsccccsssccccccccccccccccccccccccssscsscccsscsccccsssssccccscsssscccccccscccsssccccccccccccccccccccccccccsccccccccccccsscccsssccsccccccccsssssccsssssccscssscscscccccccccccccccccccccccccssscssssscssssscccssccccccscscscccssssscccssscccccsssssssscsssssssssssscsssccccccssscccccccccccccccccccccccccccccccccscccccccsssssssssscsss" />
    </g>
    <path
       style="fill:#000000;stroke-width:0.264583"
       id="path894"
       d="" />
    <path
       style="fill:#000000;stroke-width:0.264583"
       id="path836"
       d="" />
  </g>
</svg>
